<?xml version="1.0" encoding="UTF-8"?>
<svg xmlns="http://www.w3.org/2000/svg" xmlns:xlink="http://www.w3.org/1999/xlink" width="288px" height="252px" viewBox="0 0 288 252" version="1.1" id="Fig:dens">
  <metadata xmlns:gridsvg="http://www.stat.auckland.ac.nz/~paul/R/gridSVG/">
    <gridsvg:generator name="gridSVG" version="1.7-0" time="2019-08-15 15:39:47"/>
    <gridsvg:argument name="name" value="RNAseqQA/dens.svg"/>
    <gridsvg:argument name="exportCoords" value="none"/>
    <gridsvg:argument name="exportMappings" value="none"/>
    <gridsvg:argument name="exportJS" value="none"/>
    <gridsvg:argument name="res" value="72"/>
    <gridsvg:argument name="prefix" value="Fig:dens"/>
    <gridsvg:argument name="addClasses" value="FALSE"/>
    <gridsvg:argument name="indent" value="TRUE"/>
    <gridsvg:argument name="htmlWrapper" value="FALSE"/>
    <gridsvg:argument name="usePaths" value="none"/>
    <gridsvg:argument name="uniqueNames" value="TRUE"/>
    <gridsvg:separator name="id.sep" value="."/>
    <gridsvg:separator name="gPath.sep" value="::"/>
    <gridsvg:separator name="vpPath.sep" value="::"/>
  </metadata>
  <g transform="translate(0, 252) scale(1, -1)">
    <g id="Fig:densgridSVG" fill="none" stroke="rgb(0,0,0)" stroke-dasharray="none" stroke-width="0.75" font-size="12" font-family="Helvetica, Arial, FreeSans, Liberation Sans, Nimbus Sans L, sans-serif" opacity="1" stroke-linecap="round" stroke-linejoin="round" stroke-miterlimit="10" stroke-opacity="1" fill-opacity="0" font-weight="normal" font-style="normal">
      <g id="Fig:densplot_01.background.1">
        <rect id="Fig:densplot_01.background.1.1" x="0" y="0" width="288" height="252" transform="" fill="none" stroke="none" stroke-opacity="0" fill-opacity="0"/>
      </g>
      <g id="Fig:densplot_01.toplevel.vp.1" font-size="12">
        <g id="Fig:densplot_01.ylab.vp.1">
          <g id="Fig:densplot_01.ylab.1">
            <g id="Fig:densplot_01.ylab.1.1" transform="translate(10.31, 138.09)" stroke-width="0.1">
              <g id="Fig:densplot_01.ylab.1.1.scale" transform="scale(1, -1)">
                <text x="0" y="0" id="Fig:densplot_01.ylab.1.1.text" transform="rotate(-90)" text-anchor="middle" opacity="1" stroke="rgb(0,0,0)" fill="rgb(0,0,0)" stroke-opacity="1" fill-opacity="1" font-size="12" font-weight="normal" font-style="normal">
                  <tspan id="Fig:densplot_01.ylab.1.1.tspan.1" dy="4.31" x="0">Density</tspan>
                </text>
              </g>
            </g>
          </g>
        </g>
        <g id="Fig:densplot_01.figure.vp.1"/>
        <defs>
          <clipPath id="Fig:densplot_01.panel.1.1.vp.1.clipPath">
            <rect x="44.8" y="42.19" width="231.2" height="191.81" fill="none" stroke="none"/>
          </clipPath>
        </defs>
        <g id="Fig:densplot_01.panel.1.1.vp.1" clip-path="url(#Fig:densplot_01.panel.1.1.vp.1.clipPath)"/>
        <g id="Fig:densplot_01.strip.1.1.off.vp.1"/>
        <g id="Fig:densplot_01.strip.left.1.1.off.vp.1">
          <g id="Fig:densplot_01.ticks.left.panel.1.1.1">
            <polyline id="Fig:densplot_01.ticks.left.panel.1.1.1.1" points="44.8,53.95 39.13,53.95" stroke="rgb(0,0,0)" opacity="1" stroke-dasharray="none" stroke-width="0.75" stroke-opacity="1" fill="none"/>
            <polyline id="Fig:densplot_01.ticks.left.panel.1.1.1.2" points="44.8,104.11 39.13,104.11" stroke="rgb(0,0,0)" opacity="1" stroke-dasharray="none" stroke-width="0.75" stroke-opacity="1" fill="none"/>
            <polyline id="Fig:densplot_01.ticks.left.panel.1.1.1.3" points="44.8,154.27 39.13,154.27" stroke="rgb(0,0,0)" opacity="1" stroke-dasharray="none" stroke-width="0.75" stroke-opacity="1" fill="none"/>
            <polyline id="Fig:densplot_01.ticks.left.panel.1.1.1.4" points="44.8,204.43 39.13,204.43" stroke="rgb(0,0,0)" opacity="1" stroke-dasharray="none" stroke-width="0.75" stroke-opacity="1" fill="none"/>
          </g>
          <g id="Fig:densplot_01.ticklabels.left.panel.1.1.1">
            <g id="Fig:densplot_01.ticklabels.left.panel.1.1.1.1" transform="translate(33.47, 53.95)" stroke-width="0.1">
              <g id="Fig:densplot_01.ticklabels.left.panel.1.1.1.1.scale" transform="scale(1, -1)">
                <text x="0" y="0" id="Fig:densplot_01.ticklabels.left.panel.1.1.1.1.text" transform="rotate(-90)" text-anchor="middle" stroke="rgb(0,0,0)" opacity="1" fill="rgb(0,0,0)" stroke-opacity="1" fill-opacity="1" font-size="9.6" font-weight="normal" font-style="normal">
                  <tspan id="Fig:densplot_01.ticklabels.left.panel.1.1.1.1.tspan.1" dy="0" x="0">0.00</tspan>
                </text>
              </g>
            </g>
            <g id="Fig:densplot_01.ticklabels.left.panel.1.1.1.2" transform="translate(33.47, 104.11)" stroke-width="0.1">
              <g id="Fig:densplot_01.ticklabels.left.panel.1.1.1.2.scale" transform="scale(1, -1)">
                <text x="0" y="0" id="Fig:densplot_01.ticklabels.left.panel.1.1.1.2.text" transform="rotate(-90)" text-anchor="middle" stroke="rgb(0,0,0)" opacity="1" fill="rgb(0,0,0)" stroke-opacity="1" fill-opacity="1" font-size="9.6" font-weight="normal" font-style="normal">
                  <tspan id="Fig:densplot_01.ticklabels.left.panel.1.1.1.2.tspan.1" dy="0" x="0">0.05</tspan>
                </text>
              </g>
            </g>
            <g id="Fig:densplot_01.ticklabels.left.panel.1.1.1.3" transform="translate(33.47, 154.27)" stroke-width="0.1">
              <g id="Fig:densplot_01.ticklabels.left.panel.1.1.1.3.scale" transform="scale(1, -1)">
                <text x="0" y="0" id="Fig:densplot_01.ticklabels.left.panel.1.1.1.3.text" transform="rotate(-90)" text-anchor="middle" stroke="rgb(0,0,0)" opacity="1" fill="rgb(0,0,0)" stroke-opacity="1" fill-opacity="1" font-size="9.6" font-weight="normal" font-style="normal">
                  <tspan id="Fig:densplot_01.ticklabels.left.panel.1.1.1.3.tspan.1" dy="0" x="0">0.10</tspan>
                </text>
              </g>
            </g>
            <g id="Fig:densplot_01.ticklabels.left.panel.1.1.1.4" transform="translate(33.47, 204.43)" stroke-width="0.1">
              <g id="Fig:densplot_01.ticklabels.left.panel.1.1.1.4.scale" transform="scale(1, -1)">
                <text x="0" y="0" id="Fig:densplot_01.ticklabels.left.panel.1.1.1.4.text" transform="rotate(-90)" text-anchor="middle" stroke="rgb(0,0,0)" opacity="1" fill="rgb(0,0,0)" stroke-opacity="1" fill-opacity="1" font-size="9.6" font-weight="normal" font-style="normal">
                  <tspan id="Fig:densplot_01.ticklabels.left.panel.1.1.1.4.tspan.1" dy="0" x="0">0.15</tspan>
                </text>
              </g>
            </g>
          </g>
        </g>
        <g id="Fig:densplot_01.panel.1.1.off.vp.1">
          <g id="Fig:densplot_01.ticks.bottom.panel.1.1.1">
            <polyline id="Fig:densplot_01.ticks.bottom.panel.1.1.1.1" points="62.07,42.19 62.07,36.52" stroke="rgb(0,0,0)" opacity="1" stroke-dasharray="none" stroke-width="0.75" stroke-opacity="1" fill="none"/>
            <polyline id="Fig:densplot_01.ticks.bottom.panel.1.1.1.2" points="122.1,42.19 122.1,36.52" stroke="rgb(0,0,0)" opacity="1" stroke-dasharray="none" stroke-width="0.75" stroke-opacity="1" fill="none"/>
            <polyline id="Fig:densplot_01.ticks.bottom.panel.1.1.1.3" points="182.12,42.19 182.12,36.52" stroke="rgb(0,0,0)" opacity="1" stroke-dasharray="none" stroke-width="0.75" stroke-opacity="1" fill="none"/>
            <polyline id="Fig:densplot_01.ticks.bottom.panel.1.1.1.4" points="242.15,42.19 242.15,36.52" stroke="rgb(0,0,0)" opacity="1" stroke-dasharray="none" stroke-width="0.75" stroke-opacity="1" fill="none"/>
          </g>
          <g id="Fig:densplot_01.ticklabels.bottom.panel.1.1.1">
            <g id="Fig:densplot_01.ticklabels.bottom.panel.1.1.1.1" transform="translate(62.07, 30.85)" stroke-width="0.1">
              <g id="Fig:densplot_01.ticklabels.bottom.panel.1.1.1.1.scale" transform="scale(1, -1)">
                <text x="0" y="0" id="Fig:densplot_01.ticklabels.bottom.panel.1.1.1.1.text" text-anchor="middle" stroke="rgb(0,0,0)" opacity="1" fill="rgb(0,0,0)" stroke-opacity="1" fill-opacity="1" font-size="9.6" font-weight="normal" font-style="normal">
                  <tspan id="Fig:densplot_01.ticklabels.bottom.panel.1.1.1.1.tspan.1" dy="7.18" x="0">5</tspan>
                </text>
              </g>
            </g>
            <g id="Fig:densplot_01.ticklabels.bottom.panel.1.1.1.2" transform="translate(122.1, 30.85)" stroke-width="0.1">
              <g id="Fig:densplot_01.ticklabels.bottom.panel.1.1.1.2.scale" transform="scale(1, -1)">
                <text x="0" y="0" id="Fig:densplot_01.ticklabels.bottom.panel.1.1.1.2.text" text-anchor="middle" stroke="rgb(0,0,0)" opacity="1" fill="rgb(0,0,0)" stroke-opacity="1" fill-opacity="1" font-size="9.6" font-weight="normal" font-style="normal">
                  <tspan id="Fig:densplot_01.ticklabels.bottom.panel.1.1.1.2.tspan.1" dy="7.18" x="0">10</tspan>
                </text>
              </g>
            </g>
            <g id="Fig:densplot_01.ticklabels.bottom.panel.1.1.1.3" transform="translate(182.12, 30.85)" stroke-width="0.1">
              <g id="Fig:densplot_01.ticklabels.bottom.panel.1.1.1.3.scale" transform="scale(1, -1)">
                <text x="0" y="0" id="Fig:densplot_01.ticklabels.bottom.panel.1.1.1.3.text" text-anchor="middle" stroke="rgb(0,0,0)" opacity="1" fill="rgb(0,0,0)" stroke-opacity="1" fill-opacity="1" font-size="9.6" font-weight="normal" font-style="normal">
                  <tspan id="Fig:densplot_01.ticklabels.bottom.panel.1.1.1.3.tspan.1" dy="7.18" x="0">15</tspan>
                </text>
              </g>
            </g>
            <g id="Fig:densplot_01.ticklabels.bottom.panel.1.1.1.4" transform="translate(242.15, 30.85)" stroke-width="0.1">
              <g id="Fig:densplot_01.ticklabels.bottom.panel.1.1.1.4.scale" transform="scale(1, -1)">
                <text x="0" y="0" id="Fig:densplot_01.ticklabels.bottom.panel.1.1.1.4.text" text-anchor="middle" stroke="rgb(0,0,0)" opacity="1" fill="rgb(0,0,0)" stroke-opacity="1" fill-opacity="1" font-size="9.6" font-weight="normal" font-style="normal">
                  <tspan id="Fig:densplot_01.ticklabels.bottom.panel.1.1.1.4.tspan.1" dy="7.18" x="0">20</tspan>
                </text>
              </g>
            </g>
          </g>
        </g>
        <defs>
          <clipPath id="Fig:densplot_01.panel.1.1.vp.2.clipPath">
            <rect x="44.8" y="42.19" width="231.2" height="191.81" fill="none" stroke="none"/>
          </clipPath>
        </defs>
        <g id="Fig:densplot_01.panel.1.1.vp.2" clip-path="url(#Fig:densplot_01.panel.1.1.vp.2.clipPath)">
          <g id="Fig:densplot_01.xyplot.lines.group.1.panel.1.1.1">
            <polyline id="Fig:densplot_01.xyplot.lines.group.1.panel.1.1.1.1" points="61.16,54.01 61.55,54.01 61.94,54.02 62.32,54.04 62.71,54.05 63.1,54.06 63.49,54.08 63.88,54.1 64.27,54.12 64.66,54.15 65.04,54.17 65.43,54.2 65.82,54.23 66.21,54.27 66.6,54.31 66.99,54.36 67.37,54.41 67.76,54.46 68.15,54.52 68.54,54.59 68.93,54.67 69.32,54.75 69.7,54.83 70.09,54.93 70.48,55.03 70.87,55.15 71.26,55.27 71.65,55.4 72.04,55.55 72.42,55.7 72.81,55.86 73.2,56.05 73.59,56.24 73.98,56.44 74.37,56.66 74.75,56.89 75.14,57.14 75.53,57.4 75.92,57.68 76.31,57.97 76.7,58.29 77.08,58.61 77.47,58.96 77.86,59.32 78.25,59.7 78.64,60.1 79.03,60.51 79.42,60.95 79.8,61.4 80.19,61.87 80.58,62.36 80.97,62.86 81.36,63.39 81.75,63.93 82.13,64.49 82.52,65.07 82.91,65.66 83.3,66.27 83.69,66.9 84.08,67.55 84.46,68.21 84.85,68.88 85.24,69.57 85.63,70.28 86.02,71 86.41,71.74 86.8,72.48 87.18,73.25 87.57,74.03 87.96,74.82 88.35,75.62 88.74,76.44 89.13,77.27 89.51,78.11 89.9,78.97 90.29,79.84 90.68,80.72 91.07,81.61 91.46,82.52 91.84,83.44 92.23,84.37 92.62,85.31 93.01,86.27 93.4,87.24 93.79,88.22 94.18,89.22 94.56,90.23 94.95,91.25 95.34,92.28 95.73,93.32 96.12,94.37 96.51,95.43 96.89,96.5 97.28,97.58 97.67,98.66 98.06,99.75 98.45,100.84 98.84,101.94 99.22,103.03 99.61,104.12 100,105.21 100.39,106.29 100.78,107.36 101.17,108.42 101.56,109.46 101.94,110.49 102.33,111.49 102.72,112.47 103.11,113.43 103.5,114.36 103.89,115.25 104.27,116.1 104.66,116.92 105.05,117.71 105.44,118.44 105.83,119.12 106.22,119.76 106.61,120.36 106.99,120.89 107.38,121.36 107.77,121.79 108.16,122.17 108.55,122.47 108.94,122.72 109.32,122.92 109.71,123.06 110.1,123.13 110.49,123.15 110.88,123.11 111.27,123.03 111.65,122.87 112.04,122.67 112.43,122.43 112.82,122.13 113.21,121.78 113.6,121.39 113.99,120.96 114.37,120.5 114.76,119.99 115.15,119.45 115.54,118.88 115.93,118.29 116.32,117.66 116.7,117.02 117.09,116.36 117.48,115.68 117.87,114.98 118.26,114.28 118.65,113.57 119.03,112.85 119.42,112.13 119.81,111.41 120.2,110.69 120.59,109.97 120.98,109.26 121.37,108.55 121.75,107.85 122.14,107.17 122.53,106.49 122.92,105.83 123.31,105.18 123.7,104.54 124.08,103.92 124.47,103.32 124.86,102.74 125.25,102.18 125.64,101.64 126.03,101.12 126.41,100.62 126.8,100.14 127.19,99.69 127.58,99.26 127.97,98.85 128.36,98.48 128.75,98.12 129.13,97.79 129.52,97.49 129.91,97.21 130.3,96.97 130.69,96.74 131.08,96.54 131.46,96.37 131.85,96.23 132.24,96.11 132.63,96.02 133.02,95.96 133.41,95.93 133.79,95.92 134.18,95.93 134.57,95.97 134.96,96.04 135.35,96.14 135.74,96.25 136.13,96.4 136.51,96.56 136.9,96.75 137.29,96.96 137.68,97.2 138.07,97.46 138.46,97.74 138.84,98.04 139.23,98.36 139.62,98.71 140.01,99.07 140.4,99.44 140.79,99.84 141.17,100.26 141.56,100.69 141.95,101.13 142.34,101.6 142.73,102.07 143.12,102.56 143.51,103.06 143.89,103.58 144.28,104.11 144.67,104.64 145.06,105.19 145.45,105.74 145.84,106.31 146.22,106.88 146.61,107.46 147,108.05 147.39,108.64 147.78,109.24 148.17,109.84 148.55,110.45 148.94,111.06 149.33,111.67 149.72,112.29 150.11,112.91 150.5,113.54 150.89,114.17 151.27,114.8 151.66,115.43 152.05,116.07 152.44,116.71 152.83,117.36 153.22,118.01 153.6,118.66 153.99,119.32 154.38,119.99 154.77,120.66 155.16,121.34 155.55,122.03 155.94,122.73 156.32,123.44 156.71,124.16 157.1,124.89 157.49,125.63 157.88,126.39 158.27,127.17 158.65,127.95 159.04,128.76 159.43,129.58 159.82,130.42 160.21,131.28 160.6,132.15 160.98,133.06 161.37,133.97 161.76,134.91 162.15,135.87 162.54,136.86 162.93,137.86 163.32,138.89 163.7,139.94 164.09,141.01 164.48,142.1 164.87,143.21 165.26,144.35 165.65,145.51 166.03,146.69 166.42,147.88 166.81,149.1 167.2,150.34 167.59,151.59 167.98,152.86 168.36,154.15 168.75,155.46 169.14,156.77 169.53,158.1 169.92,159.45 170.31,160.8 170.7,162.17 171.08,163.54 171.47,164.92 171.86,166.31 172.25,167.7 172.64,169.1 173.03,170.5 173.41,171.91 173.8,173.31 174.19,174.72 174.58,176.12 174.97,177.52 175.36,178.91 175.74,180.3 176.13,181.68 176.52,183.05 176.91,184.41 177.3,185.77 177.69,187.11 178.08,188.43 178.46,189.74 178.85,191.04 179.24,192.31 179.63,193.57 180.02,194.8 180.41,196.02 180.79,197.21 181.18,198.37 181.57,199.51 181.96,200.62 182.35,201.7 182.74,202.75 183.12,203.77 183.51,204.76 183.9,205.7 184.29,206.61 184.68,207.49 185.07,208.33 185.46,209.11 185.84,209.86 186.23,210.58 186.62,211.25 187.01,211.86 187.4,212.43 187.79,212.96 188.17,213.44 188.56,213.86 188.95,214.23 189.34,214.56 189.73,214.84 190.12,215.05 190.5,215.22 190.89,215.34 191.28,215.4 191.67,215.4 192.06,215.35 192.45,215.25 192.84,215.09 193.22,214.87 193.61,214.6 194,214.29 194.39,213.91 194.78,213.47 195.17,212.99 195.55,212.46 195.94,211.87 196.33,211.22 196.72,210.53 197.11,209.8 197.5,209.01 197.88,208.16 198.27,207.28 198.66,206.35 199.05,205.37 199.44,204.34 199.83,203.27 200.22,202.17 200.6,201.02 200.99,199.83 201.38,198.6 201.77,197.34 202.16,196.04 202.55,194.7 202.93,193.33 203.32,191.93 203.71,190.5 204.1,189.03 204.49,187.55 204.88,186.03 205.27,184.49 205.65,182.92 206.04,181.33 206.43,179.72 206.82,178.09 207.21,176.44 207.6,174.77 207.98,173.09 208.37,171.39 208.76,169.68 209.15,167.95 209.54,166.22 209.93,164.47 210.31,162.71 210.7,160.95 211.09,159.18 211.48,157.41 211.87,155.63 212.26,153.85 212.65,152.07 213.03,150.28 213.42,148.5 213.81,146.72 214.2,144.94 214.59,143.17 214.98,141.4 215.36,139.63 215.75,137.87 216.14,136.12 216.53,134.38 216.92,132.65 217.31,130.92 217.69,129.21 218.08,127.51 218.47,125.82 218.86,124.14 219.25,122.48 219.64,120.83 220.03,119.2 220.41,117.58 220.8,115.97 221.19,114.39 221.58,112.81 221.97,111.26 222.36,109.72 222.74,108.2 223.13,106.7 223.52,105.21 223.91,103.75 224.3,102.3 224.69,100.87 225.07,99.46 225.46,98.07 225.85,96.7 226.24,95.35 226.63,94.02 227.02,92.71 227.41,91.42 227.79,90.14 228.18,88.89 228.57,87.67 228.96,86.46 229.35,85.27 229.74,84.1 230.12,82.96 230.51,81.84 230.9,80.73 231.29,79.66 231.68,78.6 232.07,77.57 232.45,76.56 232.84,75.57 233.23,74.61 233.62,73.67 234.01,72.76 234.4,71.87 234.79,71 235.17,70.16 235.56,69.34 235.95,68.55 236.34,67.79 236.73,67.04 237.12,66.32 237.5,65.63 237.89,64.97 238.28,64.33 238.67,63.71 239.06,63.12 239.45,62.55 239.83,62.01 240.22,61.49 240.61,61 241,60.53 241.39,60.08 241.78,59.65 242.17,59.24 242.55,58.86 242.94,58.5 243.33,58.15 243.72,57.84 244.11,57.53 244.5,57.25 244.88,56.98 245.27,56.73 245.66,56.5 246.05,56.28 246.44,56.08 246.83,55.89 247.21,55.72 247.6,55.56 247.99,55.4 248.38,55.27 248.77,55.14 249.16,55.03 249.55,54.92 249.93,54.82 250.32,54.73 250.71,54.65 251.1,54.58 251.49,54.51 251.88,54.45 252.26,54.39 252.65,54.34 253.04,54.3 253.43,54.26 253.82,54.22 254.21,54.19 254.6,54.16 254.98,54.14 255.37,54.11 255.76,54.09 256.15,54.07 256.54,54.06 256.93,54.04 257.31,54.03 257.7,54.02 258.09,54.01 258.48,54 258.87,53.99 259.26,53.99 259.64,53.98" stroke-dasharray="none" stroke="rgb(31,120,180)" stroke-width="0.75" opacity="1" stroke-opacity="1" fill="none"/>
          </g>
          <g id="Fig:densplot_01.xyplot.lines.group.2.panel.1.1.1">
            <polyline id="Fig:densplot_01.xyplot.lines.group.2.panel.1.1.1.1" points="62.21,53.99 62.6,53.99 62.98,54 63.37,54.01 63.75,54.02 64.13,54.03 64.52,54.04 64.9,54.05 65.29,54.06 65.67,54.08 66.06,54.1 66.44,54.12 66.82,54.14 67.21,54.17 67.59,54.2 67.98,54.23 68.36,54.26 68.75,54.3 69.13,54.34 69.51,54.39 69.9,54.43 70.28,54.49 70.67,54.55 71.05,54.62 71.44,54.69 71.82,54.76 72.2,54.85 72.59,54.94 72.97,55.03 73.36,55.14 73.74,55.25 74.13,55.38 74.51,55.51 74.89,55.64 75.28,55.8 75.66,55.96 76.05,56.13 76.43,56.31 76.82,56.5 77.2,56.71 77.59,56.93 77.97,57.16 78.35,57.4 78.74,57.66 79.12,57.93 79.51,58.22 79.89,58.53 80.28,58.85 80.66,59.18 81.04,59.53 81.43,59.91 81.81,60.3 82.2,60.7 82.58,61.13 82.97,61.57 83.35,62.04 83.73,62.52 84.12,63.03 84.5,63.56 84.89,64.11 85.27,64.67 85.66,65.26 86.04,65.88 86.42,66.51 86.81,67.17 87.19,67.84 87.58,68.55 87.96,69.27 88.35,70.01 88.73,70.77 89.11,71.56 89.5,72.37 89.88,73.19 90.27,74.03 90.65,74.89 91.04,75.76 91.42,76.65 91.8,77.55 92.19,78.47 92.57,79.4 92.96,80.33 93.34,81.27 93.73,82.22 94.11,83.17 94.49,84.12 94.88,85.07 95.26,86.01 95.65,86.96 96.03,87.89 96.42,88.81 96.8,89.73 97.18,90.62 97.57,91.5 97.95,92.37 98.34,93.21 98.72,94.03 99.11,94.83 99.49,95.6 99.87,96.35 100.26,97.06 100.64,97.75 101.03,98.42 101.41,99.04 101.8,99.64 102.18,100.2 102.56,100.74 102.95,101.24 103.33,101.71 103.72,102.16 104.1,102.57 104.49,102.96 104.87,103.32 105.25,103.65 105.64,103.96 106.02,104.25 106.41,104.51 106.79,104.76 107.18,104.99 107.56,105.21 107.94,105.41 108.33,105.61 108.71,105.79 109.1,105.97 109.48,106.14 109.87,106.31 110.25,106.47 110.63,106.64 111.02,106.81 111.4,106.97 111.79,107.14 112.17,107.31 112.56,107.49 112.94,107.67 113.33,107.86 113.71,108.04 114.09,108.23 114.48,108.43 114.86,108.63 115.25,108.82 115.63,109.02 116.02,109.22 116.4,109.42 116.78,109.62 117.17,109.81 117.55,109.99 117.94,110.17 118.32,110.35 118.71,110.51 119.09,110.67 119.47,110.82 119.86,110.96 120.24,111.08 120.63,111.2 121.01,111.3 121.4,111.39 121.78,111.47 122.16,111.54 122.55,111.6 122.93,111.65 123.32,111.69 123.7,111.72 124.09,111.74 124.47,111.75 124.85,111.76 125.24,111.77 125.62,111.77 126.01,111.77 126.39,111.77 126.78,111.77 127.16,111.77 127.54,111.77 127.93,111.78 128.31,111.79 128.7,111.8 129.08,111.82 129.47,111.84 129.85,111.86 130.23,111.89 130.62,111.93 131,111.97 131.39,112.01 131.77,112.05 132.16,112.09 132.54,112.14 132.92,112.18 133.31,112.22 133.69,112.26 134.08,112.3 134.46,112.34 134.85,112.36 135.23,112.39 135.61,112.41 136,112.42 136.38,112.42 136.77,112.42 137.15,112.41 137.54,112.4 137.92,112.38 138.3,112.35 138.69,112.32 139.07,112.29 139.46,112.26 139.84,112.22 140.23,112.19 140.61,112.17 140.99,112.14 141.38,112.13 141.76,112.12 142.15,112.13 142.53,112.15 142.92,112.18 143.3,112.23 143.68,112.3 144.07,112.39 144.45,112.5 144.84,112.64 145.22,112.8 145.61,112.99 145.99,113.2 146.37,113.43 146.76,113.7 147.14,114 147.53,114.32 147.91,114.66 148.3,115.04 148.68,115.45 149.07,115.87 149.45,116.32 149.83,116.79 150.22,117.29 150.6,117.8 150.99,118.33 151.37,118.89 151.76,119.46 152.14,120.04 152.52,120.63 152.91,121.24 153.29,121.86 153.68,122.49 154.06,123.13 154.45,123.78 154.83,124.43 155.21,125.1 155.6,125.76 155.98,126.44 156.37,127.12 156.75,127.8 157.14,128.49 157.52,129.19 157.9,129.89 158.29,130.61 158.67,131.32 159.06,132.05 159.44,132.79 159.83,133.54 160.21,134.3 160.59,135.07 160.98,135.85 161.36,136.65 161.75,137.46 162.13,138.29 162.52,139.14 162.9,140.01 163.28,140.89 163.67,141.79 164.05,142.72 164.44,143.66 164.82,144.63 165.21,145.62 165.59,146.63 165.97,147.66 166.36,148.72 166.74,149.79 167.13,150.9 167.51,152.02 167.9,153.16 168.28,154.32 168.66,155.51 169.05,156.72 169.43,157.95 169.82,159.19 170.2,160.45 170.59,161.73 170.97,163.03 171.35,164.33 171.74,165.66 172.12,166.99 172.51,168.34 172.89,169.69 173.28,171.05 173.66,172.42 174.04,173.8 174.43,175.17 174.81,176.55 175.2,177.94 175.58,179.32 175.97,180.69 176.35,182.07 176.73,183.44 177.12,184.8 177.5,186.15 177.89,187.49 178.27,188.82 178.66,190.14 179.04,191.45 179.42,192.73 179.81,194 180.19,195.25 180.58,196.48 180.96,197.68 181.35,198.86 181.73,200.01 182.11,201.14 182.5,202.23 182.88,203.29 183.27,204.32 183.65,205.33 184.04,206.29 184.42,207.21 184.81,208.1 185.19,208.95 185.57,209.75 185.96,210.51 186.34,211.23 186.73,211.91 187.11,212.53 187.5,213.11 187.88,213.64 188.26,214.13 188.65,214.56 189.03,214.93 189.42,215.26 189.8,215.54 190.19,215.77 190.57,215.93 190.95,216.04 191.34,216.1 191.72,216.11 192.11,216.05 192.49,215.94 192.88,215.79 193.26,215.57 193.64,215.29 194.03,214.96 194.41,214.59 194.8,214.15 195.18,213.66 195.57,213.11 195.95,212.52 196.33,211.88 196.72,211.17 197.1,210.42 197.49,209.63 197.87,208.79 198.26,207.89 198.64,206.95 199.02,205.97 199.41,204.95 199.79,203.87 200.18,202.75 200.56,201.6 200.95,200.41 201.33,199.18 201.71,197.91 202.1,196.61 202.48,195.27 202.87,193.9 203.25,192.49 203.64,191.06 204.02,189.6 204.4,188.11 204.79,186.59 205.17,185.05 205.56,183.49 205.94,181.89 206.33,180.28 206.71,178.65 207.09,177.01 207.48,175.34 207.86,173.66 208.25,171.96 208.63,170.25 209.02,168.53 209.4,166.79 209.78,165.05 210.17,163.3 210.55,161.54 210.94,159.77 211.32,158 211.71,156.22 212.09,154.44 212.47,152.66 212.86,150.88 213.24,149.1 213.63,147.32 214.01,145.54 214.4,143.77 214.78,142 215.16,140.23 215.55,138.48 215.93,136.73 216.32,134.99 216.7,133.25 217.09,131.53 217.47,129.82 217.85,128.12 218.24,126.43 218.62,124.76 219.01,123.1 219.39,121.45 219.78,119.81 220.16,118.2 220.55,116.6 220.93,115.01 221.31,113.44 221.7,111.89 222.08,110.35 222.47,108.83 222.85,107.33 223.24,105.85 223.62,104.38 224,102.93 224.39,101.5 224.77,100.1 225.16,98.7 225.54,97.33 225.93,95.98 226.31,94.65 226.69,93.33 227.08,92.04 227.46,90.76 227.85,89.51 228.23,88.27 228.62,87.05 229,85.86 229.38,84.69 229.77,83.53 230.15,82.4 230.54,81.28 230.92,80.2 231.31,79.13 231.69,78.08 232.07,77.06 232.46,76.06 232.84,75.08 233.23,74.12 233.61,73.19 234,72.28 234.38,71.4 234.76,70.54 235.15,69.7 235.53,68.89 235.92,68.11 236.3,67.34 236.69,66.6 237.07,65.9 237.45,65.21 237.84,64.55 238.22,63.91 238.61,63.31 238.99,62.72 239.38,62.16 239.76,61.62 240.14,61.12 240.53,60.63 240.91,60.17 241.3,59.72 241.68,59.31 242.07,58.92 242.45,58.54 242.83,58.19 243.22,57.86 243.6,57.55 243.99,57.26 244.37,56.98 244.76,56.73 245.14,56.49 245.52,56.27 245.91,56.06 246.29,55.87 246.68,55.69 247.06,55.53 247.45,55.38 247.83,55.24 248.21,55.11 248.6,55 248.98,54.89 249.37,54.79 249.75,54.7 250.14,54.62 250.52,54.55 250.9,54.48 251.29,54.42 251.67,54.37 252.06,54.32 252.44,54.28 252.83,54.24 253.21,54.2 253.59,54.17 253.98,54.14 254.36,54.12 254.75,54.1 255.13,54.08 255.52,54.06 255.9,54.05 256.29,54.03 256.67,54.02 257.05,54.01 257.44,54 257.82,53.99 258.21,53.99 258.59,53.98" stroke-dasharray="none" stroke="rgb(31,120,180)" stroke-width="0.75" opacity="1" stroke-opacity="1" fill="none"/>
          </g>
          <g id="Fig:densplot_01.xyplot.lines.group.3.panel.1.1.1">
            <polyline id="Fig:densplot_01.xyplot.lines.group.3.panel.1.1.1.1" points="61.11,53.97 61.5,53.97 61.89,53.97 62.28,53.98 62.67,53.98 63.06,53.99 63.45,53.99 63.83,54 64.22,54.01 64.61,54.02 65,54.03 65.39,54.04 65.78,54.06 66.17,54.08 66.56,54.09 66.94,54.12 67.33,54.14 67.72,54.17 68.11,54.2 68.5,54.23 68.89,54.27 69.28,54.32 69.66,54.37 70.05,54.42 70.44,54.48 70.83,54.55 71.22,54.63 71.61,54.71 72,54.8 72.38,54.91 72.77,55.02 73.16,55.14 73.55,55.28 73.94,55.43 74.33,55.59 74.72,55.78 75.1,55.98 75.49,56.19 75.88,56.42 76.27,56.68 76.66,56.95 77.05,57.25 77.44,57.56 77.82,57.91 78.21,58.29 78.6,58.68 78.99,59.11 79.38,59.57 79.77,60.06 80.16,60.58 80.54,61.12 80.93,61.72 81.32,62.34 81.71,62.99 82.1,63.68 82.49,64.42 82.88,65.19 83.26,65.99 83.65,66.83 84.04,67.71 84.43,68.63 84.82,69.58 85.21,70.56 85.6,71.59 85.99,72.65 86.37,73.74 86.76,74.86 87.15,76.02 87.54,77.2 87.93,78.41 88.32,79.64 88.71,80.89 89.09,82.16 89.48,83.45 89.87,84.75 90.26,86.06 90.65,87.38 91.04,88.7 91.43,90.02 91.81,91.33 92.2,92.64 92.59,93.94 92.98,95.23 93.37,96.49 93.76,97.74 94.15,98.96 94.53,100.15 94.92,101.31 95.31,102.43 95.7,103.52 96.09,104.57 96.48,105.57 96.87,106.53 97.25,107.44 97.64,108.3 98.03,109.1 98.42,109.86 98.81,110.56 99.2,111.2 99.59,111.78 99.97,112.31 100.36,112.79 100.75,113.2 101.14,113.55 101.53,113.84 101.92,114.09 102.31,114.27 102.69,114.4 103.08,114.48 103.47,114.51 103.86,114.49 104.25,114.41 104.64,114.3 105.03,114.14 105.42,113.94 105.8,113.7 106.19,113.43 106.58,113.13 106.97,112.8 107.36,112.44 107.75,112.05 108.14,111.66 108.52,111.23 108.91,110.8 109.3,110.36 109.69,109.91 110.08,109.46 110.47,109.01 110.86,108.56 111.24,108.11 111.63,107.67 112.02,107.24 112.41,106.83 112.8,106.43 113.19,106.05 113.58,105.69 113.96,105.34 114.35,105.02 114.74,104.73 115.13,104.46 115.52,104.21 115.91,103.99 116.3,103.8 116.68,103.64 117.07,103.49 117.46,103.38 117.85,103.29 118.24,103.23 118.63,103.19 119.02,103.17 119.4,103.17 119.79,103.2 120.18,103.23 120.57,103.28 120.96,103.35 121.35,103.43 121.74,103.51 122.12,103.61 122.51,103.7 122.9,103.8 123.29,103.9 123.68,104 124.07,104.09 124.46,104.17 124.85,104.25 125.23,104.32 125.62,104.38 126.01,104.42 126.4,104.45 126.79,104.47 127.18,104.47 127.57,104.45 127.95,104.43 128.34,104.38 128.73,104.32 129.12,104.24 129.51,104.15 129.9,104.05 130.29,103.93 130.67,103.8 131.06,103.67 131.45,103.52 131.84,103.37 132.23,103.21 132.62,103.05 133.01,102.89 133.39,102.73 133.78,102.57 134.17,102.42 134.56,102.28 134.95,102.14 135.34,102.02 135.73,101.91 136.11,101.82 136.5,101.74 136.89,101.68 137.28,101.64 137.67,101.62 138.06,101.63 138.45,101.66 138.83,101.71 139.22,101.79 139.61,101.9 140,102.03 140.39,102.18 140.78,102.38 141.17,102.59 141.55,102.83 141.94,103.1 142.33,103.39 142.72,103.72 143.11,104.06 143.5,104.42 143.89,104.82 144.28,105.24 144.66,105.67 145.05,106.13 145.44,106.61 145.83,107.1 146.22,107.61 146.61,108.14 147,108.68 147.38,109.23 147.77,109.8 148.16,110.37 148.55,110.96 148.94,111.55 149.33,112.16 149.72,112.76 150.1,113.38 150.49,114 150.88,114.62 151.27,115.25 151.66,115.88 152.05,116.51 152.44,117.15 152.82,117.79 153.21,118.43 153.6,119.08 153.99,119.73 154.38,120.38 154.77,121.04 155.16,121.71 155.54,122.37 155.93,123.05 156.32,123.74 156.71,124.43 157.1,125.13 157.49,125.84 157.88,126.56 158.26,127.3 158.65,128.05 159.04,128.81 159.43,129.59 159.82,130.38 160.21,131.19 160.6,132.03 160.98,132.88 161.37,133.75 161.76,134.63 162.15,135.55 162.54,136.48 162.93,137.44 163.32,138.41 163.71,139.42 164.09,140.44 164.48,141.49 164.87,142.56 165.26,143.66 165.65,144.78 166.04,145.93 166.43,147.09 166.81,148.28 167.2,149.49 167.59,150.72 167.98,151.97 168.37,153.24 168.76,154.54 169.15,155.84 169.53,157.17 169.92,158.51 170.31,159.87 170.7,161.24 171.09,162.62 171.48,164.01 171.87,165.42 172.25,166.83 172.64,168.25 173.03,169.67 173.42,171.1 173.81,172.54 174.2,173.97 174.59,175.4 174.97,176.83 175.36,178.26 175.75,179.69 176.14,181.1 176.53,182.51 176.92,183.91 177.31,185.31 177.69,186.68 178.08,188.04 178.47,189.39 178.86,190.73 179.25,192.04 179.64,193.33 180.03,194.6 180.41,195.85 180.8,197.07 181.19,198.27 181.58,199.44 181.97,200.58 182.36,201.68 182.75,202.76 183.14,203.8 183.52,204.81 183.91,205.78 184.3,206.71 184.69,207.6 185.08,208.46 185.47,209.26 185.86,210.03 186.24,210.76 186.63,211.44 187.02,212.06 187.41,212.64 187.8,213.18 188.19,213.67 188.58,214.09 188.96,214.47 189.35,214.81 189.74,215.09 190.13,215.3 190.52,215.47 190.91,215.59 191.3,215.65 191.68,215.65 192.07,215.61 192.46,215.51 192.85,215.35 193.24,215.13 193.63,214.86 194.02,214.54 194.4,214.16 194.79,213.72 195.18,213.24 195.57,212.7 195.96,212.11 196.35,211.46 196.74,210.77 197.12,210.03 197.51,209.23 197.9,208.39 198.29,207.5 198.68,206.57 199.07,205.58 199.46,204.55 199.84,203.48 200.23,202.38 200.62,201.22 201.01,200.03 201.4,198.8 201.79,197.53 202.18,196.23 202.57,194.88 202.95,193.51 203.34,192.11 203.73,190.67 204.12,189.21 204.51,187.71 204.9,186.2 205.29,184.65 205.67,183.08 206.06,181.49 206.45,179.88 206.84,178.24 207.23,176.58 207.62,174.91 208.01,173.23 208.39,171.52 208.78,169.81 209.17,168.08 209.56,166.34 209.95,164.59 210.34,162.83 210.73,161.06 211.11,159.29 211.5,157.51 211.89,155.73 212.28,153.95 212.67,152.16 213.06,150.37 213.45,148.59 213.83,146.8 214.22,145.02 214.61,143.24 215,141.47 215.39,139.7 215.78,137.94 216.17,136.19 216.55,134.44 216.94,132.7 217.33,130.98 217.72,129.26 218.11,127.56 218.5,125.87 218.89,124.19 219.27,122.52 219.66,120.87 220.05,119.23 220.44,117.61 220.83,116 221.22,114.41 221.61,112.84 222,111.28 222.38,109.74 222.77,108.22 223.16,106.71 223.55,105.23 223.94,103.76 224.33,102.31 224.72,100.88 225.1,99.47 225.49,98.08 225.88,96.7 226.27,95.35 226.66,94.02 227.05,92.71 227.44,91.41 227.82,90.14 228.21,88.89 228.6,87.66 228.99,86.45 229.38,85.26 229.77,84.09 230.16,82.95 230.54,81.82 230.93,80.72 231.32,79.64 231.71,78.59 232.1,77.55 232.49,76.54 232.88,75.56 233.26,74.6 233.65,73.66 234.04,72.74 234.43,71.85 234.82,70.99 235.21,70.14 235.6,69.32 235.98,68.53 236.37,67.77 236.76,67.03 237.15,66.31 237.54,65.62 237.93,64.96 238.32,64.31 238.7,63.69 239.09,63.11 239.48,62.54 239.87,62 240.26,61.48 240.65,60.99 241.04,60.52 241.43,60.07 241.81,59.64 242.2,59.24 242.59,58.85 242.98,58.49 243.37,58.15 243.76,57.83 244.15,57.53 244.53,57.24 244.92,56.97 245.31,56.73 245.7,56.5 246.09,56.28 246.48,56.07 246.87,55.89 247.25,55.72 247.64,55.55 248.03,55.4 248.42,55.27 248.81,55.14 249.2,55.02 249.59,54.92 249.97,54.82 250.36,54.73 250.75,54.65 251.14,54.58 251.53,54.51 251.92,54.45 252.31,54.39 252.69,54.34 253.08,54.3 253.47,54.26 253.86,54.22 254.25,54.19 254.64,54.16 255.03,54.14 255.41,54.11 255.8,54.09 256.19,54.07 256.58,54.06 256.97,54.04 257.36,54.03 257.75,54.02 258.13,54.01 258.52,54 258.91,53.99 259.3,53.99 259.69,53.98" stroke-dasharray="none" stroke="rgb(31,120,180)" stroke-width="0.75" opacity="1" stroke-opacity="1" fill="none"/>
          </g>
          <g id="Fig:densplot_01.xyplot.lines.group.4.panel.1.1.1">
            <polyline id="Fig:densplot_01.xyplot.lines.group.4.panel.1.1.1.1" points="61.46,53.99 61.85,53.99 62.24,54 62.62,54.01 63.01,54.02 63.4,54.03 63.79,54.04 64.17,54.06 64.56,54.07 64.95,54.09 65.34,54.11 65.72,54.13 66.11,54.16 66.5,54.19 66.88,54.22 67.27,54.25 67.66,54.29 68.05,54.33 68.43,54.38 68.82,54.43 69.21,54.49 69.59,54.56 69.98,54.63 70.37,54.7 70.76,54.79 71.14,54.88 71.53,54.98 71.92,55.09 72.31,55.2 72.69,55.33 73.08,55.47 73.47,55.61 73.85,55.77 74.24,55.94 74.63,56.13 75.02,56.32 75.4,56.53 75.79,56.75 76.18,56.99 76.57,57.24 76.95,57.51 77.34,57.79 77.73,58.09 78.11,58.4 78.5,58.73 78.89,59.08 79.28,59.44 79.66,59.82 80.05,60.22 80.44,60.63 80.82,61.07 81.21,61.52 81.6,61.98 81.99,62.47 82.37,62.97 82.76,63.49 83.15,64.03 83.54,64.59 83.92,65.16 84.31,65.75 84.7,66.36 85.08,66.99 85.47,67.64 85.86,68.3 86.25,68.98 86.63,69.67 87.02,70.39 87.41,71.13 87.79,71.88 88.18,72.65 88.57,73.44 88.96,74.25 89.34,75.07 89.73,75.92 90.12,76.79 90.51,77.68 90.89,78.58 91.28,79.51 91.67,80.46 92.05,81.43 92.44,82.42 92.83,83.43 93.22,84.46 93.6,85.51 93.99,86.57 94.38,87.66 94.77,88.76 95.15,89.89 95.54,91.02 95.93,92.17 96.31,93.34 96.7,94.51 97.09,95.7 97.48,96.89 97.86,98.08 98.25,99.28 98.64,100.48 99.02,101.67 99.41,102.85 99.8,104.03 100.19,105.19 100.57,106.33 100.96,107.45 101.35,108.55 101.74,109.63 102.12,110.67 102.51,111.67 102.9,112.64 103.28,113.57 103.67,114.45 104.06,115.28 104.45,116.07 104.83,116.81 105.22,117.49 105.61,118.11 106,118.67 106.38,119.19 106.77,119.63 107.16,120.01 107.54,120.34 107.93,120.61 108.32,120.8 108.71,120.94 109.09,121.03 109.48,121.07 109.87,121.03 110.25,120.95 110.64,120.82 111.03,120.65 111.42,120.42 111.8,120.15 112.19,119.84 112.58,119.51 112.97,119.12 113.35,118.71 113.74,118.28 114.13,117.82 114.51,117.34 114.9,116.84 115.29,116.33 115.68,115.81 116.06,115.27 116.45,114.73 116.84,114.19 117.23,113.64 117.61,113.1 118,112.55 118.39,112.01 118.77,111.47 119.16,110.94 119.55,110.42 119.94,109.9 120.32,109.39 120.71,108.89 121.1,108.4 121.48,107.92 121.87,107.45 122.26,106.98 122.65,106.53 123.03,106.08 123.42,105.65 123.81,105.22 124.2,104.8 124.58,104.39 124.97,103.99 125.36,103.59 125.74,103.21 126.13,102.83 126.52,102.45 126.91,102.09 127.29,101.74 127.68,101.39 128.07,101.06 128.45,100.74 128.84,100.42 129.23,100.12 129.62,99.83 130,99.56 130.39,99.3 130.78,99.05 131.17,98.83 131.55,98.62 131.94,98.44 132.33,98.27 132.71,98.12 133.1,98 133.49,97.91 133.88,97.84 134.26,97.8 134.65,97.79 135.04,97.81 135.43,97.85 135.81,97.93 136.2,98.04 136.59,98.18 136.97,98.35 137.36,98.56 137.75,98.8 138.14,99.08 138.52,99.38 138.91,99.71 139.3,100.09 139.68,100.48 140.07,100.91 140.46,101.36 140.85,101.85 141.23,102.36 141.62,102.89 142.01,103.45 142.4,104.03 142.78,104.62 143.17,105.23 143.56,105.86 143.94,106.51 144.33,107.16 144.72,107.82 145.11,108.5 145.49,109.18 145.88,109.86 146.27,110.54 146.66,111.23 147.04,111.91 147.43,112.6 147.82,113.27 148.2,113.95 148.59,114.62 148.98,115.28 149.37,115.93 149.75,116.58 150.14,117.22 150.53,117.85 150.91,118.47 151.3,119.08 151.69,119.68 152.08,120.27 152.46,120.86 152.85,121.44 153.24,122.02 153.63,122.58 154.01,123.15 154.4,123.71 154.79,124.27 155.17,124.83 155.56,125.39 155.95,125.96 156.34,126.53 156.72,127.1 157.11,127.68 157.5,128.28 157.88,128.88 158.27,129.5 158.66,130.13 159.05,130.77 159.43,131.44 159.82,132.12 160.21,132.82 160.6,133.54 160.98,134.29 161.37,135.05 161.76,135.84 162.14,136.66 162.53,137.5 162.92,138.37 163.31,139.27 163.69,140.19 164.08,141.14 164.47,142.12 164.86,143.12 165.24,144.15 165.63,145.22 166.02,146.3 166.4,147.41 166.79,148.55 167.18,149.72 167.57,150.9 167.95,152.11 168.34,153.34 168.73,154.6 169.11,155.87 169.5,157.16 169.89,158.48 170.28,159.8 170.66,161.15 171.05,162.5 171.44,163.87 171.83,165.26 172.21,166.65 172.6,168.04 172.99,169.45 173.37,170.86 173.76,172.28 174.15,173.69 174.54,175.11 174.92,176.53 175.31,177.94 175.7,179.36 176.09,180.76 176.47,182.16 176.86,183.55 177.25,184.93 177.63,186.3 178.02,187.66 178.41,189 178.8,190.33 179.18,191.63 179.57,192.92 179.96,194.19 180.34,195.43 180.73,196.65 181.12,197.85 181.51,199.02 181.89,200.16 182.28,201.27 182.67,202.35 183.06,203.39 183.44,204.41 183.83,205.38 184.22,206.32 184.6,207.22 184.99,208.09 185.38,208.9 185.77,209.68 186.15,210.41 186.54,211.11 186.93,211.74 187.31,212.33 187.7,212.88 188.09,213.39 188.48,213.83 188.86,214.22 189.25,214.57 189.64,214.87 190.03,215.1 190.41,215.28 190.8,215.42 191.19,215.5 191.57,215.52 191.96,215.48 192.35,215.4 192.74,215.26 193.12,215.06 193.51,214.8 193.9,214.5 194.29,214.14 194.67,213.72 195.06,213.25 195.45,212.73 195.83,212.16 196.22,211.53 196.61,210.84 197,210.12 197.38,209.35 197.77,208.51 198.16,207.64 198.54,206.72 198.93,205.76 199.32,204.74 199.71,203.68 200.09,202.59 200.48,201.46 200.87,200.27 201.26,199.05 201.64,197.8 202.03,196.51 202.42,195.18 202.8,193.82 203.19,192.43 203.58,191.01 203.97,189.56 204.35,188.07 204.74,186.57 205.13,185.04 205.52,183.47 205.9,181.89 206.29,180.29 206.68,178.67 207.06,177.02 207.45,175.36 207.84,173.68 208.23,171.99 208.61,170.28 209,168.56 209.39,166.83 209.77,165.09 210.16,163.34 210.55,161.58 210.94,159.81 211.32,158.04 211.71,156.26 212.1,154.48 212.49,152.7 212.87,150.92 213.26,149.14 213.65,147.36 214.03,145.58 214.42,143.81 214.81,142.04 215.2,140.27 215.58,138.51 215.97,136.76 216.36,135.02 216.74,133.28 217.13,131.55 217.52,129.84 217.91,128.14 218.29,126.45 218.68,124.77 219.07,123.1 219.46,121.45 219.84,119.81 220.23,118.19 220.62,116.58 221,114.99 221.39,113.41 221.78,111.85 222.17,110.31 222.55,108.79 222.94,107.28 223.33,105.79 223.72,104.32 224.1,102.87 224.49,101.44 224.88,100.02 225.26,98.63 225.65,97.25 226.04,95.9 226.43,94.56 226.81,93.24 227.2,91.94 227.59,90.67 227.97,89.41 228.36,88.17 228.75,86.96 229.14,85.76 229.52,84.58 229.91,83.43 230.3,82.3 230.69,81.19 231.07,80.1 231.46,79.04 231.85,78 232.23,76.98 232.62,75.98 233.01,75 233.4,74.06 233.78,73.13 234.17,72.23 234.56,71.35 234.95,70.5 235.33,69.67 235.72,68.86 236.11,68.08 236.49,67.33 236.88,66.6 237.27,65.9 237.66,65.22 238.04,64.57 238.43,63.94 238.82,63.33 239.2,62.75 239.59,62.2 239.98,61.67 240.37,61.16 240.75,60.68 241.14,60.23 241.53,59.79 241.92,59.37 242.3,58.98 242.69,58.61 243.08,58.26 243.46,57.93 243.85,57.62 244.24,57.33 244.63,57.06 245.01,56.8 245.4,56.56 245.79,56.34 246.17,56.13 246.56,55.94 246.95,55.76 247.34,55.59 247.72,55.44 248.11,55.3 248.5,55.17 248.89,55.05 249.27,54.94 249.66,54.84 250.05,54.75 250.43,54.67 250.82,54.59 251.21,54.52 251.6,54.46 251.98,54.4 252.37,54.35 252.76,54.3 253.15,54.26 253.53,54.23 253.92,54.19 254.31,54.16 254.69,54.14 255.08,54.11 255.47,54.09 255.86,54.07 256.24,54.06 256.63,54.04 257.02,54.03 257.4,54.02 257.79,54.01 258.18,54 258.57,53.99 258.95,53.99 259.34,53.98" stroke-dasharray="none" stroke="rgb(31,120,180)" stroke-width="0.75" opacity="1" stroke-opacity="1" fill="none"/>
          </g>
          <g id="Fig:densplot_01.xyplot.lines.group.5.panel.1.1.1">
            <polyline id="Fig:densplot_01.xyplot.lines.group.5.panel.1.1.1.1" points="61.23,53.99 61.62,54 62,54.01 62.39,54.02 62.78,54.03 63.17,54.04 63.56,54.05 63.94,54.07 64.33,54.08 64.72,54.1 65.11,54.12 65.5,54.14 65.89,54.17 66.27,54.2 66.66,54.23 67.05,54.26 67.44,54.3 67.83,54.34 68.21,54.39 68.6,54.44 68.99,54.49 69.38,54.55 69.77,54.62 70.16,54.69 70.54,54.77 70.93,54.85 71.32,54.94 71.71,55.04 72.1,55.15 72.48,55.26 72.87,55.39 73.26,55.52 73.65,55.67 74.04,55.82 74.42,55.99 74.81,56.16 75.2,56.35 75.59,56.55 75.98,56.77 76.37,57 76.75,57.24 77.14,57.49 77.53,57.76 77.92,58.05 78.31,58.36 78.69,58.68 79.08,59.02 79.47,59.37 79.86,59.75 80.25,60.14 80.64,60.56 81.02,61 81.41,61.45 81.8,61.93 82.19,62.43 82.58,62.96 82.96,63.51 83.35,64.08 83.74,64.68 84.13,65.31 84.52,65.96 84.91,66.63 85.29,67.34 85.68,68.07 86.07,68.83 86.46,69.62 86.85,70.44 87.23,71.29 87.62,72.16 88.01,73.06 88.4,74 88.79,74.97 89.17,75.96 89.56,76.98 89.95,78.03 90.34,79.11 90.73,80.22 91.12,81.35 91.5,82.51 91.89,83.7 92.28,84.9 92.67,86.12 93.06,87.37 93.44,88.64 93.83,89.92 94.22,91.22 94.61,92.53 95,93.84 95.39,95.17 95.77,96.5 96.16,97.83 96.55,99.15 96.94,100.47 97.33,101.79 97.71,103.09 98.1,104.37 98.49,105.64 98.88,106.89 99.27,108.11 99.66,109.29 100.04,110.45 100.43,111.58 100.82,112.65 101.21,113.68 101.6,114.67 101.98,115.62 102.37,116.5 102.76,117.33 103.15,118.1 103.54,118.82 103.92,119.46 104.31,120.05 104.7,120.57 105.09,121.04 105.48,121.41 105.87,121.73 106.25,121.98 106.64,122.18 107.03,122.28 107.42,122.33 107.81,122.32 108.19,122.24 108.58,122.09 108.97,121.89 109.36,121.63 109.75,121.32 110.14,120.95 110.52,120.53 110.91,120.08 111.3,119.58 111.69,119.03 112.08,118.45 112.46,117.85 112.85,117.22 113.24,116.56 113.63,115.89 114.02,115.2 114.41,114.5 114.79,113.79 115.18,113.08 115.57,112.37 115.96,111.67 116.35,110.97 116.73,110.28 117.12,109.6 117.51,108.94 117.9,108.3 118.29,107.68 118.67,107.07 119.06,106.49 119.45,105.94 119.84,105.42 120.23,104.91 120.62,104.44 121,104 121.39,103.59 121.78,103.2 122.17,102.84 122.56,102.52 122.94,102.21 123.33,101.94 123.72,101.69 124.11,101.46 124.5,101.26 124.89,101.08 125.27,100.92 125.66,100.78 126.05,100.65 126.44,100.54 126.83,100.45 127.21,100.37 127.6,100.3 127.99,100.23 128.38,100.18 128.77,100.13 129.16,100.09 129.54,100.05 129.93,100.02 130.32,99.98 130.71,99.95 131.1,99.91 131.48,99.88 131.87,99.84 132.26,99.81 132.65,99.77 133.04,99.73 133.42,99.69 133.81,99.65 134.2,99.61 134.59,99.57 134.98,99.53 135.37,99.49 135.75,99.46 136.14,99.43 136.53,99.41 136.92,99.4 137.31,99.39 137.69,99.4 138.08,99.42 138.47,99.45 138.86,99.49 139.25,99.56 139.64,99.64 140.02,99.75 140.41,99.86 140.8,100.01 141.19,100.18 141.58,100.37 141.96,100.59 142.35,100.84 142.74,101.11 143.13,101.4 143.52,101.72 143.91,102.08 144.29,102.46 144.68,102.87 145.07,103.3 145.46,103.76 145.85,104.25 146.23,104.76 146.62,105.29 147.01,105.86 147.4,106.44 147.79,107.04 148.17,107.66 148.56,108.3 148.95,108.96 149.34,109.64 149.73,110.32 150.12,111.03 150.5,111.74 150.89,112.47 151.28,113.2 151.67,113.95 152.06,114.7 152.44,115.46 152.83,116.23 153.22,117 153.61,117.77 154,118.55 154.39,119.34 154.77,120.13 155.16,120.92 155.55,121.71 155.94,122.51 156.33,123.32 156.71,124.13 157.1,124.94 157.49,125.76 157.88,126.59 158.27,127.42 158.66,128.27 159.04,129.12 159.43,129.98 159.82,130.86 160.21,131.74 160.6,132.64 160.98,133.56 161.37,134.49 161.76,135.43 162.15,136.39 162.54,137.37 162.92,138.37 163.31,139.38 163.7,140.41 164.09,141.47 164.48,142.55 164.87,143.64 165.25,144.76 165.64,145.9 166.03,147.05 166.42,148.23 166.81,149.43 167.19,150.65 167.58,151.89 167.97,153.14 168.36,154.41 168.75,155.71 169.14,157.02 169.52,158.34 169.91,159.68 170.3,161.03 170.69,162.4 171.08,163.77 171.46,165.16 171.85,166.56 172.24,167.96 172.63,169.37 173.02,170.79 173.41,172.2 173.79,173.62 174.18,175.05 174.57,176.47 174.96,177.89 175.35,179.3 175.73,180.71 176.12,182.11 176.51,183.51 176.9,184.9 177.29,186.27 177.67,187.63 178.06,188.98 178.45,190.31 178.84,191.63 179.23,192.93 179.62,194.2 180,195.46 180.39,196.7 180.78,197.9 181.17,199.08 181.56,200.24 181.94,201.37 182.33,202.46 182.72,203.53 183.11,204.56 183.5,205.56 183.89,206.52 184.27,207.44 184.66,208.33 185.05,209.18 185.44,209.97 185.83,210.73 186.21,211.45 186.6,212.13 186.99,212.75 187.38,213.32 187.77,213.86 188.16,214.34 188.54,214.77 188.93,215.14 189.32,215.47 189.71,215.76 190.1,215.97 190.48,216.14 190.87,216.26 191.26,216.32 191.65,216.32 192.04,216.27 192.42,216.17 192.81,216.01 193.2,215.79 193.59,215.52 193.98,215.2 194.37,214.83 194.75,214.39 195.14,213.9 195.53,213.37 195.92,212.78 196.31,212.13 196.69,211.44 197.08,210.7 197.47,209.91 197.86,209.06 198.25,208.17 198.64,207.24 199.02,206.26 199.41,205.23 199.8,204.16 200.19,203.05 200.58,201.9 200.96,200.7 201.35,199.47 201.74,198.2 202.13,196.9 202.52,195.55 202.91,194.18 203.29,192.78 203.68,191.34 204.07,189.87 204.46,188.38 204.85,186.86 205.23,185.31 205.62,183.73 206.01,182.14 206.4,180.53 206.79,178.89 207.17,177.23 207.56,175.55 207.95,173.87 208.34,172.16 208.73,170.44 209.12,168.7 209.5,166.96 209.89,165.21 210.28,163.44 210.67,161.67 211.06,159.9 211.44,158.11 211.83,156.32 212.22,154.53 212.61,152.74 213,150.95 213.39,149.16 213.77,147.37 214.16,145.58 214.55,143.8 214.94,142.02 215.33,140.24 215.71,138.47 216.1,136.71 216.49,134.96 216.88,133.22 217.27,131.48 217.66,129.76 218.04,128.05 218.43,126.35 218.82,124.66 219.21,122.99 219.6,121.34 219.98,119.69 220.37,118.06 220.76,116.45 221.15,114.85 221.54,113.27 221.92,111.7 222.31,110.16 222.7,108.63 223.09,107.12 223.48,105.62 223.87,104.15 224.25,102.69 224.64,101.26 225.03,99.84 225.42,98.44 225.81,97.06 226.19,95.7 226.58,94.36 226.97,93.04 227.36,91.74 227.75,90.46 228.14,89.2 228.52,87.96 228.91,86.75 229.3,85.55 229.69,84.37 230.08,83.22 230.46,82.09 230.85,80.98 231.24,79.9 231.63,78.84 232.02,77.8 232.41,76.78 232.79,75.78 233.18,74.81 233.57,73.87 233.96,72.94 234.35,72.04 234.73,71.17 235.12,70.33 235.51,69.5 235.9,68.7 236.29,67.93 236.67,67.18 237.06,66.45 237.45,65.76 237.84,65.09 238.23,64.44 238.62,63.81 239,63.22 239.39,62.65 239.78,62.1 240.17,61.57 240.56,61.07 240.94,60.6 241.33,60.14 241.72,59.71 242.11,59.3 242.5,58.92 242.89,58.55 243.27,58.2 243.66,57.88 244.05,57.57 244.44,57.28 244.83,57.01 245.21,56.76 245.6,56.53 245.99,56.31 246.38,56.1 246.77,55.91 247.16,55.74 247.54,55.57 247.93,55.42 248.32,55.28 248.71,55.16 249.1,55.04 249.48,54.93 249.87,54.83 250.26,54.74 250.65,54.66 251.04,54.58 251.42,54.52 251.81,54.45 252.2,54.4 252.59,54.35 252.98,54.3 253.37,54.26 253.75,54.23 254.14,54.19 254.53,54.16 254.92,54.14 255.31,54.11 255.69,54.09 256.08,54.07 256.47,54.06 256.86,54.04 257.25,54.03 257.64,54.02 258.02,54.01 258.41,54 258.8,53.99 259.19,53.99 259.58,53.98" stroke-dasharray="none" stroke="rgb(31,120,180)" stroke-width="0.75" opacity="1" stroke-opacity="1" fill="none"/>
          </g>
          <g id="Fig:densplot_01.xyplot.lines.group.6.panel.1.1.1">
            <polyline id="Fig:densplot_01.xyplot.lines.group.6.panel.1.1.1.1" points="59.39,53.98 59.78,53.99 60.18,54 60.57,54 60.97,54.01 61.36,54.02 61.76,54.03 62.15,54.05 62.55,54.06 62.94,54.08 63.34,54.1 63.73,54.12 64.13,54.15 64.53,54.18 64.92,54.21 65.32,54.25 65.71,54.29 66.11,54.33 66.5,54.39 66.9,54.44 67.29,54.51 67.69,54.58 68.08,54.66 68.48,54.75 68.87,54.85 69.27,54.96 69.66,55.08 70.06,55.21 70.46,55.36 70.85,55.53 71.25,55.7 71.64,55.9 72.04,56.11 72.43,56.35 72.83,56.6 73.22,56.88 73.62,57.18 74.01,57.51 74.41,57.86 74.8,58.24 75.2,58.65 75.6,59.09 75.99,59.56 76.39,60.08 76.78,60.62 77.18,61.2 77.57,61.82 77.97,62.48 78.36,63.19 78.76,63.93 79.15,64.71 79.55,65.54 79.94,66.42 80.34,67.33 80.74,68.29 81.13,69.31 81.53,70.36 81.92,71.45 82.32,72.6 82.71,73.79 83.11,75.02 83.5,76.29 83.9,77.61 84.29,78.97 84.69,80.36 85.08,81.78 85.48,83.24 85.88,84.73 86.27,86.25 86.67,87.79 87.06,89.35 87.46,90.93 87.85,92.53 88.25,94.13 88.64,95.74 89.04,97.35 89.43,98.96 89.83,100.56 90.22,102.15 90.62,103.73 91.01,105.29 91.41,106.82 91.81,108.32 92.2,109.79 92.6,111.23 92.99,112.62 93.39,113.96 93.78,115.26 94.18,116.51 94.57,117.7 94.97,118.83 95.36,119.91 95.76,120.92 96.15,121.85 96.55,122.73 96.95,123.54 97.34,124.28 97.74,124.94 98.13,125.54 98.53,126.08 98.92,126.53 99.32,126.91 99.71,127.23 100.11,127.49 100.5,127.66 100.9,127.77 101.29,127.83 101.69,127.84 102.09,127.76 102.48,127.64 102.88,127.47 103.27,127.25 103.67,126.97 104.06,126.65 104.46,126.3 104.85,125.9 105.25,125.46 105.64,125 106.04,124.51 106.43,123.98 106.83,123.43 107.22,122.85 107.62,122.27 108.02,121.65 108.41,121.03 108.81,120.39 109.2,119.74 109.6,119.08 109.99,118.41 110.39,117.73 110.78,117.05 111.18,116.36 111.57,115.67 111.97,114.98 112.36,114.28 112.76,113.58 113.16,112.88 113.55,112.17 113.95,111.47 114.34,110.76 114.74,110.05 115.13,109.35 115.53,108.64 115.92,107.92 116.32,107.21 116.71,106.5 117.11,105.78 117.5,105.06 117.9,104.34 118.3,103.63 118.69,102.91 119.09,102.19 119.48,101.47 119.88,100.75 120.27,100.03 120.67,99.31 121.06,98.6 121.46,97.89 121.85,97.18 122.25,96.48 122.64,95.78 123.04,95.09 123.44,94.41 123.83,93.74 124.23,93.08 124.62,92.43 125.02,91.8 125.41,91.18 125.81,90.57 126.2,89.98 126.6,89.41 126.99,88.85 127.39,88.32 127.78,87.81 128.18,87.32 128.57,86.85 128.97,86.4 129.37,85.98 129.76,85.59 130.16,85.22 130.55,84.87 130.95,84.56 131.34,84.27 131.74,84 132.13,83.77 132.53,83.57 132.92,83.39 133.32,83.23 133.71,83.11 134.11,83.01 134.51,82.94 134.9,82.89 135.3,82.88 135.69,82.88 136.09,82.91 136.48,82.97 136.88,83.05 137.27,83.16 137.67,83.28 138.06,83.43 138.46,83.61 138.85,83.8 139.25,84.01 139.65,84.25 140.04,84.51 140.44,84.78 140.83,85.08 141.23,85.39 141.62,85.73 142.02,86.08 142.41,86.45 142.81,86.84 143.2,87.24 143.6,87.67 143.99,88.11 144.39,88.57 144.78,89.05 145.18,89.54 145.58,90.05 145.97,90.59 146.37,91.14 146.76,91.7 147.16,92.29 147.55,92.9 147.95,93.53 148.34,94.17 148.74,94.84 149.13,95.52 149.53,96.23 149.92,96.95 150.32,97.7 150.72,98.47 151.11,99.26 151.51,100.07 151.9,100.91 152.3,101.76 152.69,102.64 153.09,103.54 153.48,104.47 153.88,105.41 154.27,106.38 154.67,107.38 155.06,108.4 155.46,109.44 155.86,110.5 156.25,111.59 156.65,112.7 157.04,113.84 157.44,114.99 157.83,116.18 158.23,117.38 158.62,118.6 159.02,119.85 159.41,121.12 159.81,122.42 160.2,123.73 160.6,125.06 160.99,126.41 161.39,127.79 161.79,129.18 162.18,130.59 162.58,132.01 162.97,133.46 163.37,134.92 163.76,136.39 164.16,137.89 164.55,139.39 164.95,140.9 165.34,142.43 165.74,143.97 166.13,145.52 166.53,147.08 166.93,148.65 167.32,150.22 167.72,151.8 168.11,153.39 168.51,154.98 168.9,156.57 169.3,158.16 169.69,159.76 170.09,161.35 170.48,162.95 170.88,164.54 171.27,166.12 171.67,167.71 172.07,169.28 172.46,170.85 172.86,172.41 173.25,173.97 173.65,175.51 174.04,177.05 174.44,178.56 174.83,180.07 175.23,181.57 175.62,183.04 176.02,184.5 176.41,185.95 176.81,187.38 177.21,188.78 177.6,190.17 178,191.53 178.39,192.88 178.79,194.2 179.18,195.49 179.58,196.76 179.97,198 180.37,199.21 180.76,200.4 181.16,201.55 181.55,202.68 181.95,203.76 182.34,204.82 182.74,205.84 183.14,206.83 183.53,207.78 183.93,208.69 184.32,209.56 184.72,210.39 185.11,211.18 185.51,211.93 185.9,212.64 186.3,213.29 186.69,213.91 187.09,214.47 187.48,215 187.88,215.47 188.28,215.89 188.67,216.27 189.07,216.6 189.46,216.86 189.86,217.08 190.25,217.25 190.65,217.37 191.04,217.42 191.44,217.43 191.83,217.39 192.23,217.29 192.62,217.14 193.02,216.93 193.42,216.67 193.81,216.36 194.21,215.98 194.6,215.56 195,215.09 195.39,214.56 195.79,213.97 196.18,213.34 196.58,212.67 196.97,211.93 197.37,211.14 197.76,210.31 198.16,209.43 198.55,208.5 198.95,207.52 199.35,206.5 199.74,205.44 200.14,204.32 200.53,203.17 200.93,201.99 201.32,200.75 201.72,199.48 202.11,198.17 202.51,196.83 202.9,195.45 203.3,194.04 203.69,192.59 204.09,191.12 204.49,189.61 204.88,188.08 205.28,186.52 205.67,184.94 206.07,183.33 206.46,181.69 206.86,180.04 207.25,178.37 207.65,176.67 208.04,174.96 208.44,173.24 208.83,171.5 209.23,169.74 209.63,167.98 210.02,166.2 210.42,164.41 210.81,162.62 211.21,160.82 211.6,159.01 212,157.2 212.39,155.39 212.79,153.57 213.18,151.75 213.58,149.93 213.97,148.12 214.37,146.3 214.77,144.49 215.16,142.68 215.56,140.88 215.95,139.09 216.35,137.3 216.74,135.52 217.14,133.75 217.53,131.99 217.93,130.24 218.32,128.5 218.72,126.77 219.11,125.06 219.51,123.36 219.9,121.67 220.3,120 220.7,118.34 221.09,116.7 221.49,115.08 221.88,113.47 222.28,111.88 222.67,110.31 223.07,108.75 223.46,107.21 223.86,105.69 224.25,104.2 224.65,102.72 225.04,101.25 225.44,99.82 225.84,98.4 226.23,97 226.63,95.62 227.02,94.26 227.42,92.93 227.81,91.61 228.21,90.32 228.6,89.05 229,87.8 229.39,86.58 229.79,85.37 230.18,84.19 230.58,83.04 230.98,81.9 231.37,80.79 231.77,79.71 232.16,78.65 232.56,77.61 232.95,76.6 233.35,75.61 233.74,74.65 234.14,73.71 234.53,72.8 234.93,71.91 235.32,71.05 235.72,70.21 236.11,69.4 236.51,68.62 236.91,67.85 237.3,67.12 237.7,66.41 238.09,65.73 238.49,65.07 238.88,64.43 239.28,63.82 239.67,63.24 240.07,62.68 240.46,62.14 240.86,61.63 241.25,61.14 241.65,60.67 242.05,60.22 242.44,59.8 242.84,59.4 243.23,59.02 243.63,58.66 244.02,58.32 244.42,58 244.81,57.69 245.21,57.41 245.6,57.14 246,56.89 246.39,56.65 246.79,56.43 247.19,56.23 247.58,56.03 247.98,55.86 248.37,55.69 248.77,55.54 249.16,55.39 249.56,55.26 249.95,55.14 250.35,55.03 250.74,54.93 251.14,54.83 251.53,54.75 251.93,54.67 252.33,54.59 252.72,54.53 253.12,54.47 253.51,54.41 253.91,54.36 254.3,54.32 254.7,54.28 255.09,54.24 255.49,54.21 255.88,54.18 256.28,54.15 256.67,54.13 257.07,54.11 257.46,54.09 257.86,54.07 258.26,54.05 258.65,54.04 259.05,54.03 259.44,54.02 259.84,54.01 260.23,54 260.63,53.99 261.02,53.99 261.42,53.98" stroke-dasharray="none" stroke="rgb(31,120,180)" stroke-width="0.75" opacity="1" stroke-opacity="1" fill="none"/>
          </g>
          <g id="Fig:densplot_01.xyplot.lines.group.7.panel.1.1.1">
            <polyline id="Fig:densplot_01.xyplot.lines.group.7.panel.1.1.1.1" points="59,54.04 59.4,54.05 59.79,54.07 60.19,54.09 60.59,54.11 60.98,54.13 61.38,54.16 61.78,54.19 62.18,54.23 62.57,54.27 62.97,54.31 63.37,54.36 63.76,54.41 64.16,54.47 64.56,54.54 64.95,54.62 65.35,54.7 65.75,54.8 66.14,54.9 66.54,55.02 66.94,55.14 67.33,55.28 67.73,55.44 68.13,55.61 68.53,55.79 68.92,55.99 69.32,56.21 69.72,56.45 70.11,56.71 70.51,56.99 70.91,57.3 71.3,57.63 71.7,57.98 72.1,58.36 72.49,58.77 72.89,59.21 73.29,59.68 73.68,60.18 74.08,60.72 74.48,61.29 74.88,61.88 75.27,62.53 75.67,63.21 76.07,63.92 76.46,64.67 76.86,65.46 77.26,66.29 77.65,67.16 78.05,68.06 78.45,69.01 78.84,70 79.24,71.01 79.64,72.07 80.03,73.17 80.43,74.3 80.83,75.46 81.23,76.66 81.62,77.89 82.02,79.15 82.42,80.42 82.81,81.74 83.21,83.07 83.61,84.41 84,85.78 84.4,87.16 84.8,88.55 85.19,89.95 85.59,91.35 85.99,92.76 86.38,94.16 86.78,95.56 87.18,96.95 87.58,98.32 87.97,99.69 88.37,101.03 88.77,102.35 89.16,103.65 89.56,104.92 89.96,106.16 90.35,107.36 90.75,108.53 91.15,109.66 91.54,110.75 91.94,111.79 92.34,112.79 92.73,113.75 93.13,114.65 93.53,115.51 93.93,116.31 94.32,117.08 94.72,117.77 95.12,118.42 95.51,119.02 95.91,119.57 96.31,120.05 96.7,120.49 97.1,120.88 97.5,121.22 97.89,121.5 98.29,121.74 98.69,121.94 99.08,122.08 99.48,122.18 99.88,122.23 100.28,122.25 100.67,122.22 101.07,122.15 101.47,122.05 101.86,121.92 102.26,121.74 102.66,121.53 103.05,121.29 103.45,121.03 103.85,120.74 104.24,120.42 104.64,120.08 105.04,119.72 105.43,119.33 105.83,118.92 106.23,118.5 106.63,118.06 107.02,117.61 107.42,117.14 107.82,116.65 108.21,116.16 108.61,115.65 109.01,115.13 109.4,114.6 109.8,114.07 110.2,113.52 110.59,112.97 110.99,112.41 111.39,111.84 111.78,111.27 112.18,110.7 112.58,110.11 112.98,109.53 113.37,108.94 113.77,108.34 114.17,107.74 114.56,107.14 114.96,106.54 115.36,105.93 115.75,105.32 116.15,104.71 116.55,104.1 116.94,103.49 117.34,102.88 117.74,102.26 118.13,101.65 118.53,101.04 118.93,100.42 119.33,99.81 119.72,99.2 120.12,98.59 120.52,97.99 120.91,97.39 121.31,96.79 121.71,96.19 122.1,95.6 122.5,95.02 122.9,94.44 123.29,93.87 123.69,93.31 124.09,92.75 124.48,92.2 124.88,91.66 125.28,91.13 125.68,90.61 126.07,90.11 126.47,89.61 126.87,89.13 127.26,88.65 127.66,88.2 128.06,87.75 128.45,87.32 128.85,86.91 129.25,86.51 129.64,86.13 130.04,85.76 130.44,85.41 130.83,85.08 131.23,84.77 131.63,84.47 132.03,84.19 132.42,83.93 132.82,83.69 133.22,83.47 133.61,83.27 134.01,83.1 134.41,82.94 134.8,82.79 135.2,82.68 135.6,82.59 135.99,82.51 136.39,82.45 136.79,82.43 137.18,82.42 137.58,82.44 137.98,82.47 138.38,82.54 138.77,82.62 139.17,82.73 139.57,82.86 139.96,83.02 140.36,83.2 140.76,83.41 141.15,83.64 141.55,83.9 141.95,84.18 142.34,84.48 142.74,84.82 143.14,85.18 143.53,85.56 143.93,85.97 144.33,86.41 144.73,86.88 145.12,87.37 145.52,87.88 145.92,88.43 146.31,89 146.71,89.59 147.11,90.21 147.5,90.86 147.9,91.54 148.3,92.23 148.69,92.96 149.09,93.72 149.49,94.49 149.88,95.29 150.28,96.12 150.68,96.98 151.08,97.85 151.47,98.75 151.87,99.68 152.27,100.63 152.66,101.6 153.06,102.6 153.46,103.62 153.85,104.66 154.25,105.72 154.65,106.81 155.04,107.92 155.44,109.04 155.84,110.19 156.23,111.36 156.63,112.55 157.03,113.75 157.43,114.98 157.82,116.23 158.22,117.49 158.62,118.77 159.01,120.07 159.41,121.39 159.81,122.73 160.2,124.08 160.6,125.45 161,126.83 161.39,128.23 161.79,129.64 162.19,131.07 162.58,132.51 162.98,133.96 163.38,135.42 163.78,136.9 164.17,138.39 164.57,139.89 164.97,141.4 165.36,142.92 165.76,144.45 166.16,145.99 166.55,147.53 166.95,149.08 167.35,150.64 167.74,152.2 168.14,153.77 168.54,155.34 168.93,156.91 169.33,158.48 169.73,160.06 170.13,161.63 170.52,163.21 170.92,164.78 171.32,166.35 171.71,167.92 172.11,169.48 172.51,171.04 172.9,172.59 173.3,174.13 173.7,175.67 174.09,177.19 174.49,178.71 174.89,180.21 175.28,181.7 175.68,183.18 176.08,184.64 176.48,186.09 176.87,187.52 177.27,188.92 177.67,190.31 178.06,191.68 178.46,193.03 178.86,194.35 179.25,195.65 179.65,196.93 180.05,198.18 180.44,199.39 180.84,200.58 181.24,201.75 181.63,202.87 182.03,203.96 182.43,205.02 182.83,206.05 183.22,207.04 183.62,207.98 184.02,208.89 184.41,209.77 184.81,210.59 185.21,211.37 185.6,212.12 186,212.82 186.4,213.46 186.79,214.07 187.19,214.63 187.59,215.14 187.98,215.59 188.38,216 188.78,216.36 189.18,216.66 189.57,216.91 189.97,217.11 190.37,217.27 190.76,217.36 191.16,217.39 191.56,217.38 191.95,217.32 192.35,217.19 192.75,217.01 193.14,216.79 193.54,216.51 193.94,216.16 194.33,215.76 194.73,215.32 195.13,214.82 195.53,214.27 195.92,213.66 196.32,213.01 196.72,212.3 197.11,211.54 197.51,210.74 197.91,209.89 198.3,208.98 198.7,208.03 199.1,207.03 199.49,206 199.89,204.91 200.29,203.78 200.68,202.62 201.08,201.41 201.48,200.16 201.88,198.87 202.27,197.55 202.67,196.19 203.07,194.8 203.46,193.37 203.86,191.92 204.26,190.43 204.65,188.91 205.05,187.37 205.45,185.8 205.84,184.2 206.24,182.58 206.64,180.94 207.03,179.28 207.43,177.6 207.83,175.9 208.23,174.19 208.62,172.45 209.02,170.71 209.42,168.95 209.81,167.18 210.21,165.4 210.61,163.61 211,161.81 211.4,160.01 211.8,158.2 212.19,156.38 212.59,154.57 212.99,152.75 213.38,150.93 213.78,149.11 214.18,147.3 214.58,145.48 214.97,143.67 215.37,141.87 215.77,140.07 216.16,138.27 216.56,136.49 216.96,134.71 217.35,132.94 217.75,131.19 218.15,129.44 218.54,127.7 218.94,125.98 219.34,124.27 219.73,122.57 220.13,120.89 220.53,119.22 220.93,117.57 221.32,115.94 221.72,114.32 222.12,112.71 222.51,111.13 222.91,109.56 223.31,108.01 223.7,106.48 224.1,104.97 224.5,103.48 224.89,102.01 225.29,100.56 225.69,99.12 226.08,97.71 226.48,96.32 226.88,94.95 227.28,93.6 227.67,92.28 228.07,90.97 228.47,89.69 228.86,88.43 229.26,87.19 229.66,85.98 230.05,84.79 230.45,83.62 230.85,82.47 231.24,81.35 231.64,80.26 232.04,79.18 232.43,78.13 232.83,77.11 233.23,76.11 233.63,75.14 234.02,74.19 234.42,73.27 234.82,72.37 235.21,71.49 235.61,70.65 236.01,69.83 236.4,69.03 236.8,68.26 237.2,67.51 237.59,66.79 237.99,66.1 238.39,65.42 238.78,64.78 239.18,64.16 239.58,63.57 239.98,62.99 240.37,62.45 240.77,61.92 241.17,61.42 241.56,60.94 241.96,60.49 242.36,60.06 242.75,59.64 243.15,59.25 243.55,58.88 243.94,58.53 244.34,58.2 244.74,57.89 245.13,57.59 245.53,57.32 245.93,57.05 246.33,56.81 246.72,56.58 247.12,56.37 247.52,56.17 247.91,55.98 248.31,55.81 248.71,55.65 249.1,55.5 249.5,55.36 249.9,55.23 250.29,55.11 250.69,55 251.09,54.9 251.48,54.81 251.88,54.73 252.28,54.65 252.68,54.58 253.07,54.52 253.47,54.46 253.87,54.4 254.26,54.36 254.66,54.31 255.06,54.27 255.45,54.24 255.85,54.2 256.25,54.17 256.64,54.15 257.04,54.13 257.44,54.1 257.83,54.09 258.23,54.07 258.63,54.05 259.03,54.04 259.42,54.03 259.82,54.02 260.22,54.01 260.61,54 261.01,53.99 261.41,53.99 261.8,53.98" stroke-dasharray="none" stroke="rgb(31,120,180)" stroke-width="0.75" opacity="1" stroke-opacity="1" fill="none"/>
          </g>
          <g id="Fig:densplot_01.xyplot.lines.group.8.panel.1.1.1">
            <polyline id="Fig:densplot_01.xyplot.lines.group.8.panel.1.1.1.1" points="60.61,54.07 61,54.09 61.39,54.11 61.78,54.14 62.17,54.17 62.57,54.2 62.96,54.24 63.35,54.28 63.74,54.33 64.13,54.38 64.52,54.44 64.91,54.51 65.3,54.58 65.69,54.66 66.08,54.76 66.47,54.86 66.86,54.97 67.25,55.1 67.64,55.24 68.03,55.39 68.42,55.56 68.81,55.74 69.2,55.95 69.6,56.17 69.99,56.41 70.38,56.67 70.77,56.95 71.16,57.26 71.55,57.6 71.94,57.95 72.33,58.34 72.72,58.76 73.11,59.2 73.5,59.68 73.89,60.19 74.28,60.74 74.67,61.31 75.06,61.92 75.45,62.57 75.84,63.26 76.24,63.98 76.63,64.73 77.02,65.54 77.41,66.37 77.8,67.24 78.19,68.14 78.58,69.09 78.97,70.07 79.36,71.08 79.75,72.13 80.14,73.22 80.53,74.33 80.92,75.46 81.31,76.63 81.7,77.83 82.09,79.04 82.48,80.27 82.87,81.53 83.27,82.8 83.66,84.07 84.05,85.36 84.44,86.65 84.83,87.95 85.22,89.24 85.61,90.53 86,91.8 86.39,93.07 86.78,94.32 87.17,95.56 87.56,96.77 87.95,97.95 88.34,99.11 88.73,100.24 89.12,101.32 89.51,102.38 89.9,103.39 90.3,104.37 90.69,105.29 91.08,106.17 91.47,107 91.86,107.79 92.25,108.51 92.64,109.18 93.03,109.81 93.42,110.38 93.81,110.89 94.2,111.35 94.59,111.77 94.98,112.12 95.37,112.41 95.76,112.66 96.15,112.86 96.54,113 96.93,113.09 97.33,113.14 97.72,113.14 98.11,113.1 98.5,113.01 98.89,112.89 99.28,112.73 99.67,112.53 100.06,112.3 100.45,112.04 100.84,111.76 101.23,111.44 101.62,111.11 102.01,110.76 102.4,110.39 102.79,110.01 103.18,109.61 103.57,109.21 103.97,108.8 104.36,108.38 104.75,107.96 105.14,107.55 105.53,107.13 105.92,106.72 106.31,106.32 106.7,105.92 107.09,105.53 107.48,105.15 107.87,104.79 108.26,104.43 108.65,104.09 109.04,103.76 109.43,103.44 109.82,103.14 110.21,102.85 110.6,102.58 111,102.31 111.39,102.06 111.78,101.83 112.17,101.61 112.56,101.39 112.95,101.19 113.34,100.99 113.73,100.81 114.12,100.63 114.51,100.45 114.9,100.28 115.29,100.12 115.68,99.95 116.07,99.79 116.46,99.63 116.85,99.46 117.24,99.3 117.63,99.13 118.03,98.95 118.42,98.77 118.81,98.58 119.2,98.39 119.59,98.18 119.98,97.97 120.37,97.75 120.76,97.53 121.15,97.29 121.54,97.04 121.93,96.79 122.32,96.52 122.71,96.25 123.1,95.96 123.49,95.67 123.88,95.37 124.27,95.06 124.67,94.75 125.06,94.43 125.45,94.1 125.84,93.77 126.23,93.43 126.62,93.09 127.01,92.75 127.4,92.4 127.79,92.05 128.18,91.71 128.57,91.36 128.96,91.02 129.35,90.68 129.74,90.34 130.13,90.01 130.52,89.68 130.91,89.36 131.3,89.05 131.7,88.75 132.09,88.46 132.48,88.18 132.87,87.92 133.26,87.66 133.65,87.43 134.04,87.21 134.43,87 134.82,86.81 135.21,86.65 135.6,86.5 135.99,86.36 136.38,86.26 136.77,86.18 137.16,86.12 137.55,86.08 137.94,86.07 138.33,86.09 138.73,86.12 139.12,86.19 139.51,86.28 139.9,86.4 140.29,86.55 140.68,86.72 141.07,86.93 141.46,87.16 141.85,87.42 142.24,87.7 142.63,88.02 143.02,88.36 143.41,88.73 143.8,89.12 144.19,89.55 144.58,90 144.97,90.47 145.37,90.97 145.76,91.49 146.15,92.04 146.54,92.6 146.93,93.19 147.32,93.81 147.71,94.44 148.1,95.1 148.49,95.78 148.88,96.47 149.27,97.19 149.66,97.92 150.05,98.68 150.44,99.45 150.83,100.24 151.22,101.04 151.61,101.87 152,102.72 152.4,103.58 152.79,104.46 153.18,105.36 153.57,106.27 153.96,107.2 154.35,108.15 154.74,109.12 155.13,110.11 155.52,111.12 155.91,112.14 156.3,113.19 156.69,114.26 157.08,115.34 157.47,116.44 157.86,117.57 158.25,118.72 158.64,119.88 159.03,121.07 159.43,122.28 159.82,123.51 160.21,124.76 160.6,126.03 160.99,127.33 161.38,128.64 161.77,129.97 162.16,131.33 162.55,132.7 162.94,134.1 163.33,135.5 163.72,136.93 164.11,138.38 164.5,139.85 164.89,141.32 165.28,142.82 165.67,144.33 166.07,145.85 166.46,147.38 166.85,148.93 167.24,150.49 167.63,152.06 168.02,153.63 168.41,155.21 168.8,156.8 169.19,158.4 169.58,160 169.97,161.6 170.36,163.2 170.75,164.81 171.14,166.41 171.53,168.02 171.92,169.62 172.31,171.22 172.7,172.81 173.1,174.4 173.49,175.98 173.88,177.55 174.27,179.12 174.66,180.67 175.05,182.21 175.44,183.75 175.83,185.27 176.22,186.77 176.61,188.26 177,189.73 177.39,191.19 177.78,192.62 178.17,194.04 178.56,195.43 178.95,196.81 179.34,198.15 179.73,199.48 180.13,200.78 180.52,202.05 180.91,203.3 181.3,204.51 181.69,205.7 182.08,206.85 182.47,207.96 182.86,209.05 183.25,210.1 183.64,211.11 184.03,212.08 184.42,213.01 184.81,213.91 185.2,214.75 185.59,215.55 185.98,216.31 186.37,217.03 186.77,217.69 187.16,218.31 187.55,218.88 187.94,219.4 188.33,219.86 188.72,220.28 189.11,220.64 189.5,220.96 189.89,221.2 190.28,221.4 190.67,221.55 191.06,221.64 191.45,221.67 191.84,221.64 192.23,221.57 192.62,221.43 193.01,221.23 193.4,220.98 193.8,220.68 194.19,220.31 194.58,219.89 194.97,219.41 195.36,218.89 195.75,218.31 196.14,217.66 196.53,216.97 196.92,216.23 197.31,215.43 197.7,214.58 198.09,213.69 198.48,212.75 198.87,211.75 199.26,210.71 199.65,209.63 200.04,208.5 200.43,207.32 200.83,206.11 201.22,204.85 201.61,203.56 202,202.22 202.39,200.85 202.78,199.44 203.17,198.01 203.56,196.53 203.95,195.02 204.34,193.49 204.73,191.93 205.12,190.33 205.51,188.71 205.9,187.07 206.29,185.41 206.68,183.72 207.07,182.01 207.47,180.28 207.86,178.54 208.25,176.78 208.64,175 209.03,173.21 209.42,171.41 209.81,169.59 210.2,167.77 210.59,165.94 210.98,164.1 211.37,162.25 211.76,160.41 212.15,158.55 212.54,156.7 212.93,154.84 213.32,152.98 213.71,151.13 214.1,149.27 214.5,147.42 214.89,145.58 215.28,143.73 215.67,141.9 216.06,140.07 216.45,138.26 216.84,136.44 217.23,134.64 217.62,132.86 218.01,131.08 218.4,129.31 218.79,127.56 219.18,125.82 219.57,124.1 219.96,122.38 220.35,120.69 220.74,119.01 221.13,117.35 221.53,115.7 221.92,114.08 222.31,112.47 222.7,110.87 223.09,109.3 223.48,107.75 223.87,106.21 224.26,104.69 224.65,103.2 225.04,101.72 225.43,100.27 225.82,98.83 226.21,97.41 226.6,96.02 226.99,94.65 227.38,93.29 227.77,91.96 228.17,90.65 228.56,89.37 228.95,88.1 229.34,86.86 229.73,85.64 230.12,84.44 230.51,83.26 230.9,82.11 231.29,80.99 231.68,79.88 232.07,78.8 232.46,77.75 232.85,76.72 233.24,75.71 233.63,74.73 234.02,73.78 234.41,72.85 234.8,71.94 235.2,71.06 235.59,70.21 235.98,69.38 236.37,68.58 236.76,67.8 237.15,67.06 237.54,66.34 237.93,65.64 238.32,64.96 238.71,64.32 239.1,63.7 239.49,63.11 239.88,62.54 240.27,62 240.66,61.48 241.05,60.98 241.44,60.51 241.83,60.06 242.23,59.63 242.62,59.23 243.01,58.85 243.4,58.49 243.79,58.15 244.18,57.82 244.57,57.52 244.96,57.24 245.35,56.98 245.74,56.72 246.13,56.49 246.52,56.28 246.91,56.08 247.3,55.89 247.69,55.72 248.08,55.56 248.47,55.41 248.87,55.27 249.26,55.15 249.65,55.03 250.04,54.92 250.43,54.82 250.82,54.74 251.21,54.66 251.6,54.58 251.99,54.51 252.38,54.45 252.77,54.4 253.16,54.35 253.55,54.3 253.94,54.26 254.33,54.23 254.72,54.19 255.11,54.16 255.5,54.14 255.9,54.12 256.29,54.1 256.68,54.08 257.07,54.06 257.46,54.05 257.85,54.03 258.24,54.02 258.63,54.01 259.02,54 259.41,54 259.8,53.99 260.19,53.98" stroke-dasharray="none" stroke="rgb(31,120,180)" stroke-width="0.75" opacity="1" stroke-opacity="1" fill="none"/>
          </g>
          <g id="Fig:densplot_01.xyplot.lines.group.9.panel.1.1.1">
            <polyline id="Fig:densplot_01.xyplot.lines.group.9.panel.1.1.1.1" points="60.64,54.11 61.03,54.14 61.42,54.17 61.81,54.2 62.2,54.24 62.59,54.28 62.98,54.33 63.37,54.38 63.76,54.44 64.15,54.5 64.55,54.58 64.94,54.66 65.33,54.75 65.72,54.85 66.11,54.97 66.5,55.09 66.89,55.23 67.28,55.38 67.67,55.55 68.06,55.73 68.45,55.93 68.84,56.15 69.23,56.39 69.62,56.65 70.01,56.93 70.4,57.23 70.79,57.56 71.18,57.92 71.57,58.3 71.96,58.71 72.35,59.16 72.74,59.63 73.14,60.14 73.53,60.67 73.92,61.25 74.31,61.86 74.7,62.5 75.09,63.19 75.48,63.91 75.87,64.67 76.26,65.46 76.65,66.3 77.04,67.18 77.43,68.09 77.82,69.03 78.21,70.03 78.6,71.05 78.99,72.12 79.38,73.21 79.77,74.34 80.16,75.5 80.55,76.7 80.94,77.91 81.33,79.16 81.73,80.43 82.12,81.72 82.51,83.02 82.9,84.35 83.29,85.68 83.68,87.02 84.07,88.37 84.46,89.71 84.85,91.06 85.24,92.39 85.63,93.72 86.02,95.03 86.41,96.32 86.8,97.58 87.19,98.83 87.58,100.03 87.97,101.2 88.36,102.34 88.75,103.44 89.14,104.48 89.53,105.47 89.92,106.42 90.32,107.31 90.71,108.13 91.1,108.9 91.49,109.62 91.88,110.26 92.27,110.83 92.66,111.34 93.05,111.8 93.44,112.17 93.83,112.47 94.22,112.71 94.61,112.9 95,113 95.39,113.04 95.78,113.02 96.17,112.95 96.56,112.81 96.95,112.61 97.34,112.37 97.73,112.08 98.12,111.73 98.51,111.35 98.91,110.93 99.3,110.47 99.69,109.98 100.08,109.46 100.47,108.92 100.86,108.36 101.25,107.78 101.64,107.2 102.03,106.6 102.42,106.01 102.81,105.41 103.2,104.81 103.59,104.22 103.98,103.64 104.37,103.08 104.76,102.53 105.15,102 105.54,101.48 105.93,100.99 106.32,100.52 106.71,100.07 107.1,99.65 107.5,99.26 107.89,98.9 108.28,98.55 108.67,98.24 109.06,97.95 109.45,97.69 109.84,97.45 110.23,97.24 110.62,97.06 111.01,96.89 111.4,96.74 111.79,96.62 112.18,96.51 112.57,96.42 112.96,96.34 113.35,96.27 113.74,96.22 114.13,96.17 114.52,96.13 114.91,96.1 115.3,96.07 115.69,96.04 116.09,96.01 116.48,95.98 116.87,95.95 117.26,95.92 117.65,95.88 118.04,95.83 118.43,95.77 118.82,95.71 119.21,95.63 119.6,95.55 119.99,95.45 120.38,95.35 120.77,95.23 121.16,95.1 121.55,94.96 121.94,94.81 122.33,94.65 122.72,94.47 123.11,94.29 123.5,94.09 123.89,93.89 124.28,93.67 124.68,93.45 125.07,93.22 125.46,92.98 125.85,92.74 126.24,92.49 126.63,92.23 127.02,91.98 127.41,91.72 127.8,91.46 128.19,91.2 128.58,90.94 128.97,90.68 129.36,90.43 129.75,90.18 130.14,89.93 130.53,89.7 130.92,89.47 131.31,89.24 131.7,89.03 132.09,88.83 132.48,88.64 132.87,88.46 133.27,88.3 133.66,88.15 134.05,88.01 134.44,87.89 134.83,87.79 135.22,87.7 135.61,87.63 136,87.58 136.39,87.55 136.78,87.54 137.17,87.54 137.56,87.57 137.95,87.61 138.34,87.68 138.73,87.77 139.12,87.87 139.51,88 139.9,88.15 140.29,88.32 140.68,88.51 141.07,88.73 141.46,88.96 141.86,89.22 142.25,89.49 142.64,89.79 143.03,90.11 143.42,90.45 143.81,90.81 144.2,91.19 144.59,91.6 144.98,92.02 145.37,92.46 145.76,92.93 146.15,93.41 146.54,93.91 146.93,94.44 147.32,94.98 147.71,95.55 148.1,96.13 148.49,96.74 148.88,97.37 149.27,98.01 149.66,98.68 150.05,99.37 150.45,100.08 150.84,100.8 151.23,101.55 151.62,102.33 152.01,103.12 152.4,103.93 152.79,104.77 153.18,105.63 153.57,106.51 153.96,107.41 154.35,108.33 154.74,109.28 155.13,110.25 155.52,111.25 155.91,112.26 156.3,113.31 156.69,114.37 157.08,115.45 157.47,116.56 157.86,117.7 158.25,118.86 158.64,120.04 159.04,121.24 159.43,122.47 159.82,123.72 160.21,124.98 160.6,126.28 160.99,127.59 161.38,128.93 161.77,130.28 162.16,131.65 162.55,133.05 162.94,134.46 163.33,135.89 163.72,137.33 164.11,138.8 164.5,140.28 164.89,141.77 165.28,143.28 165.67,144.8 166.06,146.33 166.45,147.87 166.84,149.42 167.23,150.99 167.63,152.56 168.02,154.13 168.41,155.72 168.8,157.3 169.19,158.9 169.58,160.49 169.97,162.09 170.36,163.69 170.75,165.29 171.14,166.89 171.53,168.49 171.92,170.08 172.31,171.67 172.7,173.26 173.09,174.84 173.48,176.41 173.87,177.98 174.26,179.54 174.65,181.09 175.04,182.62 175.43,184.15 175.82,185.67 176.22,187.16 176.61,188.65 177,190.12 177.39,191.57 177.78,193.01 178.17,194.42 178.56,195.82 178.95,197.2 179.34,198.55 179.73,199.87 180.12,201.18 180.51,202.45 180.9,203.7 181.29,204.92 181.68,206.11 182.07,207.27 182.46,208.39 182.85,209.48 183.24,210.54 183.63,211.55 184.02,212.53 184.41,213.47 184.81,214.37 185.2,215.22 185.59,216.03 185.98,216.8 186.37,217.52 186.76,218.19 187.15,218.81 187.54,219.39 187.93,219.92 188.32,220.38 188.71,220.8 189.1,221.17 189.49,221.49 189.88,221.74 190.27,221.95 190.66,222.1 191.05,222.19 191.44,222.22 191.83,222.2 192.22,222.13 192.61,221.99 193.01,221.79 193.4,221.55 193.79,221.25 194.18,220.88 194.57,220.46 194.96,219.98 195.35,219.46 195.74,218.88 196.13,218.23 196.52,217.54 196.91,216.8 197.3,216 197.69,215.15 198.08,214.25 198.47,213.31 198.86,212.31 199.25,211.27 199.64,210.18 200.03,209.06 200.42,207.87 200.81,206.65 201.2,205.4 201.6,204.1 201.99,202.76 202.38,201.38 202.77,199.97 203.16,198.54 203.55,197.05 203.94,195.54 204.33,194 204.72,192.44 205.11,190.84 205.5,189.22 205.89,187.57 206.28,185.9 206.67,184.21 207.06,182.49 207.45,180.76 207.84,179.01 208.23,177.24 208.62,175.46 209.01,173.67 209.4,171.86 209.79,170.04 210.19,168.21 210.58,166.37 210.97,164.53 211.36,162.68 211.75,160.82 212.14,158.96 212.53,157.1 212.92,155.24 213.31,153.38 213.7,151.51 214.09,149.65 214.48,147.8 214.87,145.95 215.26,144.1 215.65,142.26 216.04,140.42 216.43,138.6 216.82,136.78 217.21,134.98 217.6,133.18 217.99,131.4 218.38,129.62 218.78,127.87 219.17,126.12 219.56,124.39 219.95,122.67 220.34,120.97 220.73,119.29 221.12,117.62 221.51,115.97 221.9,114.34 222.29,112.72 222.68,111.12 223.07,109.54 223.46,107.98 223.85,106.44 224.24,104.92 224.63,103.42 225.02,101.94 225.41,100.48 225.8,99.03 226.19,97.61 226.58,96.21 226.97,94.83 227.37,93.47 227.76,92.14 228.15,90.83 228.54,89.53 228.93,88.26 229.32,87.01 229.71,85.79 230.1,84.59 230.49,83.41 230.88,82.25 231.27,81.12 231.66,80.01 232.05,78.93 232.44,77.87 232.83,76.83 233.22,75.82 233.61,74.84 234,73.88 234.39,72.95 234.78,72.04 235.17,71.15 235.56,70.29 235.96,69.46 236.35,68.66 236.74,67.88 237.13,67.13 237.52,66.4 237.91,65.7 238.3,65.02 238.69,64.38 239.08,63.76 239.47,63.16 239.86,62.58 240.25,62.04 240.64,61.52 241.03,61.02 241.42,60.54 241.81,60.09 242.2,59.67 242.59,59.26 242.98,58.87 243.37,58.51 243.76,58.17 244.15,57.84 244.55,57.54 244.94,57.26 245.33,56.99 245.72,56.74 246.11,56.51 246.5,56.29 246.89,56.09 247.28,55.9 247.67,55.73 248.06,55.57 248.45,55.42 248.84,55.28 249.23,55.15 249.62,55.04 250.01,54.93 250.4,54.83 250.79,54.74 251.18,54.66 251.57,54.59 251.96,54.52 252.35,54.46 252.74,54.4 253.14,54.35 253.53,54.3 253.92,54.26 254.31,54.23 254.7,54.2 255.09,54.17 255.48,54.14 255.87,54.12 256.26,54.1 256.65,54.08 257.04,54.06 257.43,54.05 257.82,54.03 258.21,54.02 258.6,54.01 258.99,54 259.38,54 259.77,53.99 260.16,53.98" stroke-dasharray="none" stroke="rgb(31,120,180)" stroke-width="0.75" opacity="1" stroke-opacity="1" fill="none"/>
          </g>
          <g id="Fig:densplot_01.xyplot.lines.group.10.panel.1.1.1">
            <polyline id="Fig:densplot_01.xyplot.lines.group.10.panel.1.1.1.1" points="59.31,54.13 59.71,54.15 60.11,54.18 60.5,54.22 60.9,54.25 61.29,54.29 61.69,54.34 62.08,54.39 62.48,54.45 62.88,54.51 63.27,54.58 63.67,54.66 64.06,54.74 64.46,54.83 64.85,54.94 65.25,55.05 65.64,55.17 66.04,55.31 66.44,55.45 66.83,55.61 67.23,55.78 67.62,55.97 68.02,56.17 68.41,56.39 68.81,56.62 69.21,56.87 69.6,57.14 70,57.43 70.39,57.74 70.79,58.07 71.18,58.41 71.58,58.78 71.97,59.17 72.37,59.59 72.77,60.02 73.16,60.48 73.56,60.96 73.95,61.47 74.35,61.99 74.74,62.54 75.14,63.12 75.54,63.71 75.93,64.33 76.33,64.97 76.72,65.64 77.12,66.33 77.51,67.03 77.91,67.76 78.31,68.51 78.7,69.27 79.1,70.05 79.49,70.85 79.89,71.67 80.28,72.49 80.68,73.33 81.07,74.19 81.47,75.06 81.87,75.94 82.26,76.82 82.66,77.72 83.05,78.62 83.45,79.53 83.84,80.45 84.24,81.37 84.64,82.29 85.03,83.22 85.43,84.15 85.82,85.08 86.22,86.02 86.61,86.95 87.01,87.89 87.41,88.83 87.8,89.77 88.2,90.71 88.59,91.65 88.99,92.59 89.38,93.53 89.78,94.48 90.17,95.42 90.57,96.37 90.97,97.31 91.36,98.26 91.76,99.21 92.15,100.16 92.55,101.12 92.94,102.07 93.34,103.02 93.74,103.98 94.13,104.93 94.53,105.89 94.92,106.84 95.32,107.79 95.71,108.74 96.11,109.68 96.51,110.62 96.9,111.55 97.3,112.47 97.69,113.38 98.09,114.27 98.48,115.16 98.88,116.03 99.27,116.87 99.67,117.7 100.07,118.51 100.46,119.28 100.86,120.03 101.25,120.75 101.65,121.44 102.04,122.09 102.44,122.7 102.84,123.28 103.23,123.82 103.63,124.31 104.02,124.75 104.42,125.15 104.81,125.5 105.21,125.79 105.6,126.04 106,126.24 106.4,126.38 106.79,126.46 107.19,126.49 107.58,126.48 107.98,126.4 108.37,126.26 108.77,126.08 109.17,125.85 109.56,125.55 109.96,125.21 110.35,124.82 110.75,124.39 111.14,123.9 111.54,123.37 111.94,122.81 112.33,122.2 112.73,121.54 113.12,120.86 113.52,120.15 113.91,119.4 114.31,118.62 114.7,117.82 115.1,117 115.5,116.16 115.89,115.3 116.29,114.43 116.68,113.54 117.08,112.65 117.47,111.75 117.87,110.84 118.27,109.93 118.66,109.03 119.06,108.12 119.45,107.22 119.85,106.32 120.24,105.43 120.64,104.56 121.04,103.69 121.43,102.83 121.83,101.99 122.22,101.17 122.62,100.35 123.01,99.56 123.41,98.79 123.8,98.03 124.2,97.29 124.6,96.57 124.99,95.87 125.39,95.19 125.78,94.53 126.18,93.9 126.57,93.29 126.97,92.7 127.37,92.13 127.76,91.58 128.16,91.06 128.55,90.56 128.95,90.08 129.34,89.62 129.74,89.19 130.13,88.78 130.53,88.39 130.93,88.03 131.32,87.69 131.72,87.37 132.11,87.09 132.51,86.82 132.9,86.58 133.3,86.36 133.7,86.17 134.09,86 134.49,85.86 134.88,85.74 135.28,85.65 135.67,85.58 136.07,85.54 136.47,85.52 136.86,85.54 137.26,85.58 137.65,85.63 138.05,85.72 138.44,85.84 138.84,85.98 139.23,86.14 139.63,86.33 140.03,86.54 140.42,86.78 140.82,87.04 141.21,87.33 141.61,87.64 142,87.97 142.4,88.32 142.8,88.7 143.19,89.1 143.59,89.51 143.98,89.95 144.38,90.42 144.77,90.9 145.17,91.4 145.57,91.92 145.96,92.46 146.36,93.01 146.75,93.59 147.15,94.18 147.54,94.79 147.94,95.42 148.33,96.06 148.73,96.73 149.13,97.41 149.52,98.11 149.92,98.82 150.31,99.55 150.71,100.3 151.1,101.07 151.5,101.85 151.9,102.65 152.29,103.47 152.69,104.31 153.08,105.16 153.48,106.04 153.87,106.93 154.27,107.84 154.67,108.77 155.06,109.73 155.46,110.7 155.85,111.68 156.25,112.7 156.64,113.73 157.04,114.78 157.43,115.85 157.83,116.94 158.23,118.05 158.62,119.19 159.02,120.34 159.41,121.51 159.81,122.71 160.2,123.92 160.6,125.15 161,126.4 161.39,127.67 161.79,128.96 162.18,130.27 162.58,131.6 162.97,132.94 163.37,134.29 163.76,135.67 164.16,137.06 164.56,138.46 164.95,139.87 165.35,141.3 165.74,142.74 166.14,144.2 166.53,145.66 166.93,147.13 167.33,148.61 167.72,150.1 168.12,151.6 168.51,153.1 168.91,154.61 169.3,156.12 169.7,157.64 170.1,159.15 170.49,160.67 170.89,162.19 171.28,163.71 171.68,165.23 172.07,166.75 172.47,168.26 172.86,169.77 173.26,171.27 173.66,172.77 174.05,174.26 174.45,175.74 174.84,177.21 175.24,178.68 175.63,180.13 176.03,181.56 176.43,182.99 176.82,184.4 177.22,185.79 177.61,187.17 178.01,188.52 178.4,189.87 178.8,191.18 179.2,192.48 179.59,193.75 179.99,195 180.38,196.22 180.78,197.41 181.17,198.58 181.57,199.72 181.96,200.83 182.36,201.9 182.76,202.95 183.15,203.95 183.55,204.92 183.94,205.85 184.34,206.75 184.73,207.6 185.13,208.41 185.53,209.19 185.92,209.92 186.32,210.6 186.71,211.23 187.11,211.83 187.5,212.38 187.9,212.87 188.3,213.31 188.69,213.71 189.09,214.06 189.48,214.34 189.88,214.58 190.27,214.78 190.67,214.91 191.06,214.99 191.46,215.02 191.86,215 192.25,214.91 192.65,214.77 193.04,214.58 193.44,214.35 193.83,214.04 194.23,213.68 194.63,213.28 195.02,212.83 195.42,212.31 195.81,211.74 196.21,211.12 196.6,210.46 197,209.73 197.39,208.96 197.79,208.15 198.19,207.28 198.58,206.36 198.98,205.4 199.37,204.4 199.77,203.35 200.16,202.25 200.56,201.12 200.96,199.95 201.35,198.73 201.75,197.47 202.14,196.19 202.54,194.87 202.93,193.5 203.33,192.1 203.73,190.68 204.12,189.23 204.52,187.73 204.91,186.22 205.31,184.68 205.7,183.12 206.1,181.52 206.49,179.91 206.89,178.28 207.29,176.63 207.68,174.96 208.08,173.27 208.47,171.56 208.87,169.84 209.26,168.11 209.66,166.37 210.06,164.62 210.45,162.85 210.85,161.08 211.24,159.3 211.64,157.52 212.03,155.73 212.43,153.94 212.83,152.14 213.22,150.35 213.62,148.55 214.01,146.76 214.41,144.97 214.8,143.18 215.2,141.4 215.59,139.62 215.99,137.85 216.39,136.08 216.78,134.33 217.18,132.58 217.57,130.84 217.97,129.12 218.36,127.4 218.76,125.7 219.16,124 219.55,122.33 219.95,120.66 220.34,119.01 220.74,117.38 221.13,115.76 221.53,114.16 221.92,112.57 222.32,111 222.72,109.45 223.11,107.91 223.51,106.4 223.9,104.9 224.3,103.42 224.69,101.96 225.09,100.52 225.49,99.1 225.88,97.7 226.28,96.32 226.67,94.96 227.07,93.63 227.46,92.31 227.86,91.01 228.26,89.74 228.65,88.49 229.05,87.26 229.44,86.05 229.84,84.86 230.23,83.7 230.63,82.56 231.02,81.44 231.42,80.35 231.82,79.28 232.21,78.24 232.61,77.21 233,76.22 233.4,75.25 233.79,74.3 234.19,73.37 234.59,72.48 234.98,71.61 235.38,70.75 235.77,69.93 236.17,69.13 236.56,68.36 236.96,67.61 237.36,66.89 237.75,66.19 238.15,65.52 238.54,64.87 238.94,64.25 239.33,63.65 239.73,63.07 240.12,62.52 240.52,61.99 240.92,61.49 241.31,61.01 241.71,60.55 242.1,60.11 242.5,59.7 242.89,59.3 243.29,58.93 243.69,58.58 244.08,58.24 244.48,57.92 244.87,57.63 245.27,57.35 245.66,57.08 246.06,56.84 246.46,56.6 246.85,56.39 247.25,56.19 247.64,56 248.04,55.82 248.43,55.66 248.83,55.51 249.22,55.37 249.62,55.24 250.02,55.12 250.41,55.01 250.81,54.91 251.2,54.82 251.6,54.73 251.99,54.65 252.39,54.58 252.79,54.52 253.18,54.46 253.58,54.4 253.97,54.36 254.37,54.31 254.76,54.27 255.16,54.24 255.55,54.2 255.95,54.17 256.35,54.15 256.74,54.12 257.14,54.1 257.53,54.09 257.93,54.07 258.32,54.05 258.72,54.04 259.12,54.03 259.51,54.02 259.91,54.01 260.3,54 260.7,53.99 261.09,53.99 261.49,53.98" stroke-dasharray="none" stroke="rgb(31,120,180)" stroke-width="0.75" opacity="1" stroke-opacity="1" fill="none"/>
          </g>
        </g>
        <g id="Fig:densplot_01.panel.1.1.off.vp.2">
          <g id="Fig:densplot_01.border.panel.1.1.1">
            <rect id="Fig:densplot_01.border.panel.1.1.1.1" x="44.8" y="42.19" width="231.2" height="191.81" transform="" stroke="rgb(0,0,0)" stroke-dasharray="none" stroke-width="0.75" opacity="1" fill="none" stroke-opacity="1" fill-opacity="0"/>
          </g>
        </g>
        <g id="Fig:densplot_01..1"/>
      </g>
    </g>
  </g>
</svg>